<svg xmlns="http://www.w3.org/2000/svg" xmlns:xlink="http://www.w3.org/1999/xlink" version="1.2" width="48.33mm" height="12.37mm" viewBox="8.5358 -0.0000 27.5031 7.0375">
<style type="text/css">
<![CDATA[
tspan { white-space: pre; }
]]>
</style>
<g transform="translate(8.5358, 5.0335)">
<line stroke-linejoin="round" stroke-linecap="round" stroke-width="0.1000" stroke="currentColor" x1="0.0500" y1="0" x2="27.4531" y2="0"/>
</g>
<g transform="translate(35.8489, 5.0335)">
<rect x="0.0000" y="-1.0000" width="0.1900" height="2.0000" ry="0.0000" fill="currentColor"/>
</g>
<g transform="translate(13.1406, 5.0335)">
<path transform="scale(0.0040, -0.0040)" d="M0 -46c0 91 116 182 217 182c63 0 109 -35 109 -90c0 -87 -110 -182 -220 -182c-67 0 -106 39 -106 90z" fill="currentColor"/>
</g>
<g transform="translate(9.6724, 5.0335)">
<path transform="scale(0.0040, -0.0040)" d="M263 265c0 -33 70 -23 70 -125c0 -92 -79 -140 -179 -140c-79 0 -154 42 -154 113c0 36 30 66 66 66s65 -30 65 -66c0 -25 -40 -28 -40 -53c0 -27 32 -37 63 -37c49 0 63 61 63 117v16c0 54 -2 94 -50 94h-80c-10 0 -14 8 -14 15s4 14 14 14h80c49 0 50 43 50 99v8
c0 54 -18 91 -67 91c-28 0 -57 -9 -57 -33c0 -22 35 -25 35 -47c0 -32 -25 -58 -57 -58s-58 26 -58 58c0 64 67 103 137 103c91 0 169 -33 169 -114c0 -122 -56 -80 -56 -121z" fill="currentColor"/>
</g>
<g transform="translate(9.5358, 7.0375)">
<path transform="scale(0.0040, -0.0040)" d="M196 117h117c0 -48 27 -94 72 -94c8 0 12 -5 12 -11s-4 -12 -12 -12c-44 0 -87 13 -131 13s-87 -13 -131 -13c-8 0 -12 6 -12 12s4 11 12 11c45 0 73 46 73 94zM225 487c36 0 69 14 76 14c8 0 14 -6 14 -12c0 -2 -1 -3 -2 -5l-284 -330h167v131c0 34 34 27 68 72
c22 30 23 56 36 56c6 0 13 -5 13 -14v-245h72c10 0 15 -7 15 -14s-5 -15 -15 -15h-72v-8h-117v8h-167c-23 0 -31 14 -31 23c0 12 140 143 140 336c0 9 6 16 13 16c5 0 39 -13 74 -13z" fill="currentColor"/>
</g>
<g transform="translate(14.3798, 5.0335)">
<rect x="-0.0650" y="-3.3333" width="0.1300" height="3.1471" ry="0.0400" fill="currentColor"/>
</g>
<g transform="translate(15.1439, 5.0335)">
<path transform="scale(0.0028, -0.0028)" d="M0 -40c0 92 109 179 208 179c67 0 117 -40 117 -99c0 -88 -103 -179 -211 -179c-71 0 -114 43 -114 99z" fill="currentColor"/>
</g>
<g transform="translate(15.9969, 5.0335)">
<rect x="-0.0650" y="-2.7000" width="0.1300" height="2.5856" ry="0.0400" fill="currentColor"/>
</g>
<g transform="translate(16.0619, 2.3735)">
<path transform="scale(0.0028, -0.0028)" d="M115 -723c0 12 43 85 43 193c0 101 -90 205 -158 280v-125h-21v375h21c0 -196 207 -334 207 -530c0 -71 -15 -140 -41 -206c-5 -10 -14 -13 -23 -13c-14 0 -28 10 -28 26z" fill="currentColor"/>
</g>
<g transform="translate(23.2748, 1.1799)">
<text font-family="serif" font-style="italic" font-size="1.7459" text-anchor="start" fill="currentColor">
<tspan>5:3</tspan>
</text>
</g>
<g transform="translate(17.0825, 5.0335)">
<path transform="scale(0.0040, -0.0040)" d="M0 -46c0 91 116 182 217 182c63 0 109 -35 109 -90c0 -87 -110 -182 -220 -182c-67 0 -106 39 -106 90z" fill="currentColor"/>
</g>
<g transform="translate(18.3217, 5.0335)">
<rect x="-0.0650" y="-3.3333" width="0.1300" height="3.1471" ry="0.0400" fill="currentColor"/>
</g>
<g transform="translate(14.3148, 0.6002)">
<line stroke-linejoin="round" stroke-linecap="round" stroke-width="0.1600" stroke="currentColor" x1="20.4760" y1="-0.0000" x2="20.4760" y2="0.7000"/>
</g>
<g transform="translate(14.3148, 0.6002)">
<line stroke-linejoin="round" stroke-linecap="round" stroke-width="0.1600" stroke="currentColor" x1="-0.2000" y1="-0.0000" x2="-0.2000" y2="0.7000"/>
</g>
<g transform="translate(14.3148, 0.6002)">
<line stroke-linejoin="round" stroke-linecap="round" stroke-width="0.1600" stroke="currentColor" x1="20.4760" y1="-0.0000" x2="11.9160" y2="-0.0000"/>
</g>
<g transform="translate(14.3148, 0.6002)">
<line stroke-linejoin="round" stroke-linecap="round" stroke-width="0.1600" stroke="currentColor" x1="-0.2000" y1="-0.0000" x2="8.5601" y2="-0.0000"/>
</g>
<g transform="translate(19.0859, 5.0335)">
<path transform="scale(0.0028, -0.0028)" d="M0 -40c0 92 109 179 208 179c67 0 117 -40 117 -99c0 -88 -103 -179 -211 -179c-71 0 -114 43 -114 99z" fill="currentColor"/>
</g>
<g transform="translate(19.9388, 5.0335)">
<rect x="-0.0650" y="-2.7000" width="0.1300" height="2.5856" ry="0.0400" fill="currentColor"/>
</g>
<g transform="translate(20.0038, 2.3735)">
<path transform="scale(0.0028, -0.0028)" d="M115 -723c0 12 43 85 43 193c0 101 -90 205 -158 280v-125h-21v375h21c0 -196 207 -334 207 -530c0 -71 -15 -140 -41 -206c-5 -10 -14 -13 -23 -13c-14 0 -28 10 -28 26z" fill="currentColor"/>
</g>
<g transform="translate(21.0245, 5.0335)">
<path transform="scale(0.0028, -0.0028)" d="M0 -40c0 92 109 179 208 179c67 0 117 -40 117 -99c0 -88 -103 -179 -211 -179c-71 0 -114 43 -114 99z" fill="currentColor"/>
</g>
<g transform="translate(21.8775, 5.0335)">
<rect x="-0.0650" y="-2.7000" width="0.1300" height="2.5856" ry="0.0400" fill="currentColor"/>
</g>
<g transform="translate(21.9425, 2.3735)">
<path transform="scale(0.0028, -0.0028)" d="M115 -723c0 12 43 85 43 193c0 101 -90 205 -158 280v-125h-21v375h21c0 -196 207 -334 207 -530c0 -71 -15 -140 -41 -206c-5 -10 -14 -13 -23 -13c-14 0 -28 10 -28 26z" fill="currentColor"/>
</g>
<g transform="translate(22.9632, 5.0335)">
<path transform="scale(0.0040, -0.0040)" d="M0 -46c0 91 116 182 217 182c63 0 109 -35 109 -90c0 -87 -110 -182 -220 -182c-67 0 -106 39 -106 90z" fill="currentColor"/>
</g>
<g transform="translate(24.2024, 5.0335)">
<rect x="-0.0650" y="-3.3333" width="0.1300" height="3.1471" ry="0.0400" fill="currentColor"/>
</g>
<g transform="translate(24.9665, 5.0335)">
<path transform="scale(0.0028, -0.0028)" d="M0 -40c0 92 109 179 208 179c67 0 117 -40 117 -99c0 -88 -103 -179 -211 -179c-71 0 -114 43 -114 99z" fill="currentColor"/>
</g>
<g transform="translate(25.8195, 5.0335)">
<rect x="-0.0650" y="-2.7000" width="0.1300" height="2.5856" ry="0.0400" fill="currentColor"/>
</g>
<g transform="translate(25.8845, 2.3735)">
<path transform="scale(0.0028, -0.0028)" d="M115 -723c0 12 43 85 43 193c0 101 -90 205 -158 280v-125h-21v375h21c0 -196 207 -334 207 -530c0 -71 -15 -140 -41 -206c-5 -10 -14 -13 -23 -13c-14 0 -28 10 -28 26z" fill="currentColor"/>
</g>
<g transform="translate(26.9052, 5.0335)">
<path transform="scale(0.0028, -0.0028)" d="M0 -40c0 92 109 179 208 179c67 0 117 -40 117 -99c0 -88 -103 -179 -211 -179c-71 0 -114 43 -114 99z" fill="currentColor"/>
</g>
<g transform="translate(27.7581, 5.0335)">
<rect x="-0.0650" y="-2.7000" width="0.1300" height="2.5856" ry="0.0400" fill="currentColor"/>
</g>
<g transform="translate(27.8231, 2.3735)">
<path transform="scale(0.0028, -0.0028)" d="M115 -723c0 12 43 85 43 193c0 101 -90 205 -158 280v-125h-21v375h21c0 -196 207 -334 207 -530c0 -71 -15 -140 -41 -206c-5 -10 -14 -13 -23 -13c-14 0 -28 10 -28 26z" fill="currentColor"/>
</g>
<g transform="translate(28.8438, 5.0335)">
<path transform="scale(0.0028, -0.0028)" d="M0 -40c0 92 109 179 208 179c67 0 117 -40 117 -99c0 -88 -103 -179 -211 -179c-71 0 -114 43 -114 99z" fill="currentColor"/>
</g>
<g transform="translate(29.6967, 5.0335)">
<rect x="-0.0650" y="-2.7000" width="0.1300" height="2.5856" ry="0.0400" fill="currentColor"/>
</g>
<g transform="translate(29.7617, 2.3735)">
<path transform="scale(0.0028, -0.0028)" d="M115 -723c0 12 43 85 43 193c0 101 -90 205 -158 280v-125h-21v375h21c0 -196 207 -334 207 -530c0 -71 -15 -140 -41 -206c-5 -10 -14 -13 -23 -13c-14 0 -28 10 -28 26z" fill="currentColor"/>
</g>
<g transform="translate(30.7824, 5.0335)">
<path transform="scale(0.0040, -0.0040)" d="M0 -46c0 91 116 182 217 182c63 0 109 -35 109 -90c0 -87 -110 -182 -220 -182c-67 0 -106 39 -106 90z" fill="currentColor"/>
</g>
<g transform="translate(32.0216, 5.0335)">
<rect x="-0.0650" y="-3.3333" width="0.1300" height="3.1471" ry="0.0400" fill="currentColor"/>
</g>
<g transform="translate(33.2866, 5.0335)">
<path transform="scale(0.0040, -0.0040)" d="M0 -46c0 91 116 182 217 182c63 0 109 -35 109 -90c0 -87 -110 -182 -220 -182c-67 0 -106 39 -106 90z" fill="currentColor"/>
</g>
<g transform="translate(34.5258, 5.0335)">
<rect x="-0.0650" y="-3.3333" width="0.1300" height="3.1471" ry="0.0400" fill="currentColor"/>
</g>
</svg>
