<svg xmlns="http://www.w3.org/2000/svg" xmlns:xlink="http://www.w3.org/1999/xlink" version="1.2" width="210.00mm" height="297.00mm" viewBox="0.0000 -0.0000 119.5016 169.0094">
<style type="text/css">
<![CDATA[
tspan { white-space: pre; }
]]>
</style>
<g transform="translate(17.0717, 13.2276)">
<line stroke-linejoin="round" stroke-linecap="round" stroke-width="0.1000" stroke="currentColor" x1="0.0500" y1="0" x2="92.1053" y2="0"/>
</g>
<g transform="translate(109.0369, 13.2276)">
<rect x="0.0000" y="-1.0000" width="0.1900" height="2.0000" ry="0.0000" fill="currentColor"/>
</g>
<g transform="translate(88.3412, 13.2276)">
<rect x="0.0000" y="-1.0000" width="0.1900" height="2.0000" ry="0.0000" fill="currentColor"/>
</g>
<g transform="translate(63.0843, 13.2276)">
<rect x="0.0000" y="-1.0000" width="0.1900" height="2.0000" ry="0.0000" fill="currentColor"/>
</g>
<g transform="translate(42.3886, 13.2276)">
<rect x="0.0000" y="-1.0000" width="0.1900" height="2.0000" ry="0.0000" fill="currentColor"/>
</g>
<g transform="translate(21.6764, 13.2276)">
<path transform="scale(0.0040, -0.0040)" d="M0 -46c0 91 116 182 217 182c63 0 109 -35 109 -90c0 -87 -110 -182 -220 -182c-67 0 -106 39 -106 90z" fill="currentColor"/>
</g>
<g transform="translate(18.0717, 13.2276)">
<path transform="scale(0.0040, -0.0040)" d="M196 117h117c0 -48 27 -94 72 -94c8 0 12 -5 12 -11s-4 -12 -12 -12c-44 0 -87 13 -131 13s-87 -13 -131 -13c-8 0 -12 6 -12 12s4 11 12 11c45 0 73 46 73 94zM225 487c36 0 69 14 76 14c8 0 14 -6 14 -12c0 -2 -1 -3 -2 -5l-284 -330h167v131c0 34 34 27 68 72
c22 30 23 56 36 56c6 0 13 -5 13 -14v-245h72c10 0 15 -7 15 -14s-5 -15 -15 -15h-72v-8h-117v8h-167c-23 0 -31 14 -31 23c0 12 140 143 140 336c0 9 6 16 13 16c5 0 39 -13 74 -13z" fill="currentColor"/>
</g>
<g transform="translate(18.1399, 15.2276)">
<path transform="scale(0.0040, -0.0040)" d="M261 287c25 30 44 64 44 103c0 54 -55 87 -114 87c-46 0 -73 -36 -73 -71c0 -21 10 -42 31 -54zM292 269c54 -31 80 -79 80 -125c0 -73 -66 -144 -189 -144c-94 0 -183 54 -183 140c0 50 36 87 72 123c-37 28 -55 66 -55 103c0 68 60 134 174 134c80 0 157 -39 157 -110
c0 -46 -25 -86 -56 -121zM103 244c-31 -30 -59 -61 -59 -104c0 -69 66 -117 139 -117c54 0 86 42 86 83c0 24 -10 48 -35 62z" fill="currentColor"/>
</g>
<g transform="translate(22.9156, 13.2276)">
<rect x="-0.0650" y="-3.1900" width="0.1300" height="3.0038" ry="0.0400" fill="currentColor"/>
</g>
<g transform="translate(93.9236, 7.7976)">
<line stroke-linejoin="round" stroke-linecap="round" stroke-width="0.1600" stroke="currentColor" x1="14.0552" y1="-0.0000" x2="14.0552" y2="0.7000"/>
</g>
<g transform="translate(93.9236, 7.7976)">
<line stroke-linejoin="round" stroke-linecap="round" stroke-width="0.1600" stroke="currentColor" x1="-0.2000" y1="-0.0000" x2="-0.2000" y2="0.7000"/>
</g>
<g transform="translate(93.9236, 7.7976)">
<line stroke-linejoin="round" stroke-linecap="round" stroke-width="0.1600" stroke="currentColor" x1="14.0552" y1="-0.0000" x2="8.1775" y2="-0.0000"/>
</g>
<g transform="translate(93.9236, 7.7976)">
<line stroke-linejoin="round" stroke-linecap="round" stroke-width="0.1600" stroke="currentColor" x1="-0.2000" y1="-0.0000" x2="5.8777" y2="-0.0000"/>
</g>
<g transform="translate(25.8878, 13.2276)">
<path transform="scale(0.0040, -0.0040)" d="M0 -46c0 91 116 182 217 182c63 0 109 -35 109 -90c0 -87 -110 -182 -220 -182c-67 0 -106 39 -106 90z" fill="currentColor"/>
</g>
<g transform="translate(27.1270, 13.2276)">
<rect x="-0.0650" y="-3.1900" width="0.1300" height="3.0038" ry="0.0400" fill="currentColor"/>
</g>
<g transform="translate(93.9236, 10.0376)">
<polygon stroke-linejoin="round" stroke-linecap="round" stroke-width="0.0800" fill="currentColor" stroke="currentColor" points="13.8152 -0.2000 13.8152 0.2000 0.0400 0.2000 0.0400 -0.2000"/>
</g>
<g transform="translate(93.9236, 10.0376)">
<polygon stroke-linejoin="round" stroke-linecap="round" stroke-width="0.0800" fill="currentColor" stroke="currentColor" points="13.8152 0.6100 13.8152 1.0100 0.0400 0.2000 0.0400 -0.2000"/>
</g>
<g transform="translate(29.9411, 13.2276)">
<path transform="scale(0.0040, -0.0040)" d="M0 -46c0 91 116 182 217 182c63 0 109 -35 109 -90c0 -87 -110 -182 -220 -182c-67 0 -106 39 -106 90z" fill="currentColor"/>
</g>
<g transform="translate(31.1803, 13.2276)">
<rect x="-0.0650" y="-3.1900" width="0.1300" height="3.0038" ry="0.0400" fill="currentColor"/>
</g>
<g transform="scale(0.7500, 0.7500)">
<g transform="translate(103.2584, 11.4341)">
<path transform="scale(0.0032, -0.0032)" d="M76 -103c39 0 197 107 224 139c7 8 10 18 10 27c0 21 -17 40 -40 40c-39 0 -197 -107 -224 -139c-7 -8 -10 -18 -10 -27c0 -21 17 -40 40 -40zM0 -63c0 40 15 201 253 201c43 0 93 -10 93 -75c0 -40 -15 -201 -253 -201c-43 0 -93 10 -93 75z" fill="currentColor"/>
</g>
<g transform="translate(104.2917, 11.8310)">
<rect x="-0.0650" y="-2.9102" width="0.1300" height="2.3185" ry="0.0400" fill="currentColor"/>
</g>
</g>
<g transform="translate(33.5891, 13.2276)">
<path transform="scale(0.0040, -0.0040)" d="M0 -46c0 91 116 182 217 182c63 0 109 -35 109 -90c0 -87 -110 -182 -220 -182c-67 0 -106 39 -106 90z" fill="currentColor"/>
</g>
<g transform="translate(34.8283, 13.2276)">
<rect x="-0.0650" y="-3.1900" width="0.1300" height="3.0038" ry="0.0400" fill="currentColor"/>
</g>
<g transform="translate(68.8032, 7.7976)">
<line stroke-linejoin="round" stroke-linecap="round" stroke-width="0.1600" stroke="currentColor" x1="18.3049" y1="-0.0000" x2="18.3049" y2="0.7000"/>
</g>
<g transform="translate(68.8032, 7.7976)">
<line stroke-linejoin="round" stroke-linecap="round" stroke-width="0.1600" stroke="currentColor" x1="-0.2000" y1="-0.0000" x2="-0.2000" y2="0.7000"/>
</g>
<g transform="translate(68.8032, 7.7976)">
<line stroke-linejoin="round" stroke-linecap="round" stroke-width="0.1600" stroke="currentColor" x1="18.3049" y1="-0.0000" x2="10.0643" y2="-0.0000"/>
</g>
<g transform="translate(68.8032, 7.7976)">
<line stroke-linejoin="round" stroke-linecap="round" stroke-width="0.1600" stroke="currentColor" x1="-0.2000" y1="-0.0000" x2="8.2406" y2="-0.0000"/>
</g>
<g transform="translate(36.7830, 13.2276)">
<path transform="scale(0.0040, -0.0040)" d="M0 -46c0 91 116 182 217 182c63 0 109 -35 109 -90c0 -87 -110 -182 -220 -182c-67 0 -106 39 -106 90z" fill="currentColor"/>
</g>
<g transform="translate(38.0222, 13.2276)">
<rect x="-0.0650" y="-3.1900" width="0.1300" height="3.0038" ry="0.0400" fill="currentColor"/>
</g>
<g transform="translate(68.8032, 10.0376)">
<polygon stroke-linejoin="round" stroke-linecap="round" stroke-width="0.0800" fill="currentColor" stroke="currentColor" points="18.0649 -0.2000 18.0649 0.2000 0.0400 0.2000 0.0400 -0.2000"/>
</g>
<g transform="translate(68.8032, 10.0376)">
<polygon stroke-linejoin="round" stroke-linecap="round" stroke-width="0.0800" fill="currentColor" stroke="currentColor" points="18.0649 0.6100 18.0649 1.0100 0.0400 0.2000 0.0400 -0.2000"/>
</g>
<g transform="translate(39.6513, 13.2276)">
<path transform="scale(0.0040, -0.0040)" d="M0 -46c0 91 116 182 217 182c63 0 109 -35 109 -90c0 -87 -110 -182 -220 -182c-67 0 -106 39 -106 90z" fill="currentColor"/>
</g>
<g transform="translate(40.8905, 13.2276)">
<rect x="-0.0650" y="-3.1900" width="0.1300" height="3.0038" ry="0.0400" fill="currentColor"/>
</g>
<g transform="scale(0.7500, 0.7500)">
<g transform="translate(72.3316, 11.4341)">
<path transform="scale(0.0032, -0.0032)" d="M0 -43c0 92 111 181 211 181c65 0 115 -37 115 -95c0 -88 -106 -181 -215 -181c-70 0 -111 41 -111 95z" fill="currentColor"/>
</g>
<g transform="translate(73.7143, 11.4341)">
<path transform="scale(0.0032, -0.0032)" d="M0 0c0 30 25 55 55 55s55 -25 55 -55s-25 -55 -55 -55s-55 25 -55 55z" fill="currentColor"/>
</g>
<g transform="translate(73.2990, 11.8310)">
<rect x="-0.0650" y="-2.9102" width="0.1300" height="2.3774" ry="0.0400" fill="currentColor"/>
</g>
</g>
<g transform="translate(47.9710, 7.7976)">
<line stroke-linejoin="round" stroke-linecap="round" stroke-width="0.1600" stroke="currentColor" x1="14.0552" y1="-0.0000" x2="14.0552" y2="0.7000"/>
</g>
<g transform="translate(47.9710, 7.7976)">
<line stroke-linejoin="round" stroke-linecap="round" stroke-width="0.1600" stroke="currentColor" x1="-0.2000" y1="-0.0000" x2="-0.2000" y2="0.7000"/>
</g>
<g transform="translate(47.9710, 7.7976)">
<line stroke-linejoin="round" stroke-linecap="round" stroke-width="0.1600" stroke="currentColor" x1="14.0552" y1="-0.0000" x2="8.1775" y2="-0.0000"/>
</g>
<g transform="translate(47.9710, 7.7976)">
<line stroke-linejoin="round" stroke-linecap="round" stroke-width="0.1600" stroke="currentColor" x1="-0.2000" y1="-0.0000" x2="5.8777" y2="-0.0000"/>
</g>
<g transform="translate(46.7968, 13.2276)">
<path transform="scale(0.0040, -0.0040)" d="M0 -46c0 91 116 182 217 182c63 0 109 -35 109 -90c0 -87 -110 -182 -220 -182c-67 0 -106 39 -106 90z" fill="currentColor"/>
</g>
<g transform="translate(43.3969, 13.2276)">
<path transform="scale(0.0040, -0.0040)" d="M263 265c0 -33 70 -23 70 -125c0 -92 -79 -140 -179 -140c-79 0 -154 42 -154 113c0 36 30 66 66 66s65 -30 65 -66c0 -25 -40 -28 -40 -53c0 -27 32 -37 63 -37c49 0 63 61 63 117v16c0 54 -2 94 -50 94h-80c-10 0 -14 8 -14 15s4 14 14 14h80c49 0 50 43 50 99v8
c0 54 -18 91 -67 91c-28 0 -57 -9 -57 -33c0 -22 35 -25 35 -47c0 -32 -25 -58 -57 -58s-58 26 -58 58c0 64 67 103 137 103c91 0 169 -33 169 -114c0 -122 -56 -80 -56 -121z" fill="currentColor"/>
</g>
<g transform="translate(43.3286, 15.2276)">
<path transform="scale(0.0040, -0.0040)" d="M261 287c25 30 44 64 44 103c0 54 -55 87 -114 87c-46 0 -73 -36 -73 -71c0 -21 10 -42 31 -54zM292 269c54 -31 80 -79 80 -125c0 -73 -66 -144 -189 -144c-94 0 -183 54 -183 140c0 50 36 87 72 123c-37 28 -55 66 -55 103c0 68 60 134 174 134c80 0 157 -39 157 -110
c0 -46 -25 -86 -56 -121zM103 244c-31 -30 -59 -61 -59 -104c0 -69 66 -117 139 -117c54 0 86 42 86 83c0 24 -10 48 -35 62z" fill="currentColor"/>
</g>
<g transform="translate(48.0360, 13.2276)">
<rect x="-0.0650" y="-3.1900" width="0.1300" height="3.0038" ry="0.0400" fill="currentColor"/>
</g>
<g transform="translate(47.9710, 10.0376)">
<polygon stroke-linejoin="round" stroke-linecap="round" stroke-width="0.0800" fill="currentColor" stroke="currentColor" points="13.8152 -0.2000 13.8152 0.2000 0.0400 0.2000 0.0400 -0.2000"/>
</g>
<g transform="translate(47.9710, 10.0376)">
<polygon stroke-linejoin="round" stroke-linecap="round" stroke-width="0.0800" fill="currentColor" stroke="currentColor" points="13.8152 0.6100 13.8152 1.0100 0.0400 0.2000 0.0400 -0.2000"/>
</g>
<g transform="translate(50.8799, 13.2276)">
<path transform="scale(0.0040, -0.0040)" d="M0 -46c0 91 116 182 217 182c63 0 109 -35 109 -90c0 -87 -110 -182 -220 -182c-67 0 -106 39 -106 90z" fill="currentColor"/>
</g>
<g transform="translate(52.1191, 13.2276)">
<rect x="-0.0650" y="-3.1900" width="0.1300" height="3.0038" ry="0.0400" fill="currentColor"/>
</g>
<g transform="scale(0.7500, 0.7500)">
<g transform="translate(41.9882, 11.4341)">
<path transform="scale(0.0032, -0.0032)" d="M76 -103c39 0 197 107 224 139c7 8 10 18 10 27c0 21 -17 40 -40 40c-39 0 -197 -107 -224 -139c-7 -8 -10 -18 -10 -27c0 -21 17 -40 40 -40zM0 -63c0 40 15 201 253 201c43 0 93 -10 93 -75c0 -40 -15 -201 -253 -201c-43 0 -93 10 -93 75z" fill="currentColor"/>
</g>
<g transform="translate(43.0215, 11.8310)">
<rect x="-0.0650" y="-2.9102" width="0.1300" height="2.3185" ry="0.0400" fill="currentColor"/>
</g>
</g>
<g transform="translate(54.6738, 13.2276)">
<path transform="scale(0.0040, -0.0040)" d="M0 -46c0 91 116 182 217 182c63 0 109 -35 109 -90c0 -87 -110 -182 -220 -182c-67 0 -106 39 -106 90z" fill="currentColor"/>
</g>
<g transform="translate(55.9130, 13.2276)">
<rect x="-0.0650" y="-3.1900" width="0.1300" height="3.0038" ry="0.0400" fill="currentColor"/>
</g>
<g transform="translate(22.8506, 7.7976)">
<line stroke-linejoin="round" stroke-linecap="round" stroke-width="0.1600" stroke="currentColor" x1="18.3049" y1="-0.0000" x2="18.3049" y2="0.7000"/>
</g>
<g transform="translate(22.8506, 7.7976)">
<line stroke-linejoin="round" stroke-linecap="round" stroke-width="0.1600" stroke="currentColor" x1="-0.2000" y1="-0.0000" x2="-0.2000" y2="0.7000"/>
</g>
<g transform="translate(22.8506, 7.7976)">
<line stroke-linejoin="round" stroke-linecap="round" stroke-width="0.1600" stroke="currentColor" x1="18.3049" y1="-0.0000" x2="10.0643" y2="-0.0000"/>
</g>
<g transform="translate(22.8506, 7.7976)">
<line stroke-linejoin="round" stroke-linecap="round" stroke-width="0.1600" stroke="currentColor" x1="-0.2000" y1="-0.0000" x2="8.2406" y2="-0.0000"/>
</g>
<g transform="translate(57.8427, 13.2276)">
<path transform="scale(0.0040, -0.0040)" d="M0 -46c0 91 116 182 217 182c63 0 109 -35 109 -90c0 -87 -110 -182 -220 -182c-67 0 -106 39 -106 90z" fill="currentColor"/>
</g>
<g transform="translate(59.0819, 13.2276)">
<rect x="-0.0650" y="-3.1900" width="0.1300" height="3.0038" ry="0.0400" fill="currentColor"/>
</g>
<g transform="translate(22.8506, 10.0376)">
<polygon stroke-linejoin="round" stroke-linecap="round" stroke-width="0.0800" fill="currentColor" stroke="currentColor" points="18.0649 -0.2000 18.0649 0.2000 0.0400 0.2000 0.0400 -0.2000"/>
</g>
<g transform="translate(22.8506, 10.0376)">
<polygon stroke-linejoin="round" stroke-linecap="round" stroke-width="0.0800" fill="currentColor" stroke="currentColor" points="18.0649 0.6100 18.0649 1.0100 0.0400 0.2000 0.0400 -0.2000"/>
</g>
<g transform="translate(60.5220, 13.2276)">
<path transform="scale(0.0040, -0.0040)" d="M0 -46c0 91 116 182 217 182c63 0 109 -35 109 -90c0 -87 -110 -182 -220 -182c-67 0 -106 39 -106 90z" fill="currentColor"/>
</g>
<g transform="translate(61.7612, 13.2276)">
<rect x="-0.0650" y="-3.1900" width="0.1300" height="3.0038" ry="0.0400" fill="currentColor"/>
</g>
<g transform="translate(67.6290, 13.2276)">
<path transform="scale(0.0040, -0.0040)" d="M0 -46c0 91 116 182 217 182c63 0 109 -35 109 -90c0 -87 -110 -182 -220 -182c-67 0 -106 39 -106 90z" fill="currentColor"/>
</g>
<g transform="translate(64.0243, 13.2276)">
<path transform="scale(0.0040, -0.0040)" d="M196 117h117c0 -48 27 -94 72 -94c8 0 12 -5 12 -11s-4 -12 -12 -12c-44 0 -87 13 -131 13s-87 -13 -131 -13c-8 0 -12 6 -12 12s4 11 12 11c45 0 73 46 73 94zM225 487c36 0 69 14 76 14c8 0 14 -6 14 -12c0 -2 -1 -3 -2 -5l-284 -330h167v131c0 34 34 27 68 72
c22 30 23 56 36 56c6 0 13 -5 13 -14v-245h72c10 0 15 -7 15 -14s-5 -15 -15 -15h-72v-8h-117v8h-167c-23 0 -31 14 -31 23c0 12 140 143 140 336c0 9 6 16 13 16c5 0 39 -13 74 -13z" fill="currentColor"/>
</g>
<g transform="translate(64.0926, 15.2276)">
<path transform="scale(0.0040, -0.0040)" d="M261 287c25 30 44 64 44 103c0 54 -55 87 -114 87c-46 0 -73 -36 -73 -71c0 -21 10 -42 31 -54zM292 269c54 -31 80 -79 80 -125c0 -73 -66 -144 -189 -144c-94 0 -183 54 -183 140c0 50 36 87 72 123c-37 28 -55 66 -55 103c0 68 60 134 174 134c80 0 157 -39 157 -110
c0 -46 -25 -86 -56 -121zM103 244c-31 -30 -59 -61 -59 -104c0 -69 66 -117 139 -117c54 0 86 42 86 83c0 24 -10 48 -35 62z" fill="currentColor"/>
</g>
<g transform="translate(68.8682, 13.2276)">
<rect x="-0.0650" y="-3.1900" width="0.1300" height="3.0038" ry="0.0400" fill="currentColor"/>
</g>
<g transform="scale(0.7500, 0.7500)">
<g transform="translate(133.6017, 11.4341)">
<path transform="scale(0.0032, -0.0032)" d="M0 -43c0 92 111 181 211 181c65 0 115 -37 115 -95c0 -88 -106 -181 -215 -181c-70 0 -111 41 -111 95z" fill="currentColor"/>
</g>
<g transform="translate(134.9845, 11.4341)">
<path transform="scale(0.0032, -0.0032)" d="M0 0c0 30 25 55 55 55s55 -25 55 -55s-25 -55 -55 -55s-55 25 -55 55z" fill="currentColor"/>
</g>
<g transform="translate(134.5692, 11.8310)">
<rect x="-0.0650" y="-2.9102" width="0.1300" height="2.3774" ry="0.0400" fill="currentColor"/>
</g>
</g>
<g transform="translate(71.8405, 13.2276)">
<path transform="scale(0.0040, -0.0040)" d="M0 -46c0 91 116 182 217 182c63 0 109 -35 109 -90c0 -87 -110 -182 -220 -182c-67 0 -106 39 -106 90z" fill="currentColor"/>
</g>
<g transform="translate(73.0797, 13.2276)">
<rect x="-0.0650" y="-3.1900" width="0.1300" height="3.0038" ry="0.0400" fill="currentColor"/>
</g>
<g transform="translate(75.8937, 13.2276)">
<path transform="scale(0.0040, -0.0040)" d="M0 -46c0 91 116 182 217 182c63 0 109 -35 109 -90c0 -87 -110 -182 -220 -182c-67 0 -106 39 -106 90z" fill="currentColor"/>
</g>
<g transform="translate(77.1329, 13.2276)">
<rect x="-0.0650" y="-3.1900" width="0.1300" height="3.0038" ry="0.0400" fill="currentColor"/>
</g>
<g transform="translate(79.5418, 13.2276)">
<path transform="scale(0.0040, -0.0040)" d="M0 -46c0 91 116 182 217 182c63 0 109 -35 109 -90c0 -87 -110 -182 -220 -182c-67 0 -106 39 -106 90z" fill="currentColor"/>
</g>
<g transform="translate(80.7810, 13.2276)">
<rect x="-0.0650" y="-3.1900" width="0.1300" height="3.0038" ry="0.0400" fill="currentColor"/>
</g>
<g transform="translate(82.7356, 13.2276)">
<path transform="scale(0.0040, -0.0040)" d="M0 -46c0 91 116 182 217 182c63 0 109 -35 109 -90c0 -87 -110 -182 -220 -182c-67 0 -106 39 -106 90z" fill="currentColor"/>
</g>
<g transform="translate(83.9748, 13.2276)">
<rect x="-0.0650" y="-3.1900" width="0.1300" height="3.0038" ry="0.0400" fill="currentColor"/>
</g>
<g transform="translate(85.6039, 13.2276)">
<path transform="scale(0.0040, -0.0040)" d="M0 -46c0 91 116 182 217 182c63 0 109 -35 109 -90c0 -87 -110 -182 -220 -182c-67 0 -106 39 -106 90z" fill="currentColor"/>
</g>
<g transform="translate(86.8431, 13.2276)">
<rect x="-0.0650" y="-3.1900" width="0.1300" height="3.0038" ry="0.0400" fill="currentColor"/>
</g>
<g transform="translate(92.7494, 13.2276)">
<path transform="scale(0.0040, -0.0040)" d="M0 -46c0 91 116 182 217 182c63 0 109 -35 109 -90c0 -87 -110 -182 -220 -182c-67 0 -106 39 -106 90z" fill="currentColor"/>
</g>
<g transform="translate(89.3495, 13.2276)">
<path transform="scale(0.0040, -0.0040)" d="M263 265c0 -33 70 -23 70 -125c0 -92 -79 -140 -179 -140c-79 0 -154 42 -154 113c0 36 30 66 66 66s65 -30 65 -66c0 -25 -40 -28 -40 -53c0 -27 32 -37 63 -37c49 0 63 61 63 117v16c0 54 -2 94 -50 94h-80c-10 0 -14 8 -14 15s4 14 14 14h80c49 0 50 43 50 99v8
c0 54 -18 91 -67 91c-28 0 -57 -9 -57 -33c0 -22 35 -25 35 -47c0 -32 -25 -58 -57 -58s-58 26 -58 58c0 64 67 103 137 103c91 0 169 -33 169 -114c0 -122 -56 -80 -56 -121z" fill="currentColor"/>
</g>
<g transform="translate(89.2812, 15.2276)">
<path transform="scale(0.0040, -0.0040)" d="M261 287c25 30 44 64 44 103c0 54 -55 87 -114 87c-46 0 -73 -36 -73 -71c0 -21 10 -42 31 -54zM292 269c54 -31 80 -79 80 -125c0 -73 -66 -144 -189 -144c-94 0 -183 54 -183 140c0 50 36 87 72 123c-37 28 -55 66 -55 103c0 68 60 134 174 134c80 0 157 -39 157 -110
c0 -46 -25 -86 -56 -121zM103 244c-31 -30 -59 -61 -59 -104c0 -69 66 -117 139 -117c54 0 86 42 86 83c0 24 -10 48 -35 62z" fill="currentColor"/>
</g>
<g transform="translate(93.9886, 13.2276)">
<rect x="-0.0650" y="-3.1900" width="0.1300" height="3.0038" ry="0.0400" fill="currentColor"/>
</g>
<g transform="translate(96.8325, 13.2276)">
<path transform="scale(0.0040, -0.0040)" d="M0 -46c0 91 116 182 217 182c63 0 109 -35 109 -90c0 -87 -110 -182 -220 -182c-67 0 -106 39 -106 90z" fill="currentColor"/>
</g>
<g transform="translate(98.0717, 13.2276)">
<rect x="-0.0650" y="-3.1900" width="0.1300" height="3.0038" ry="0.0400" fill="currentColor"/>
</g>
<g transform="translate(107.7138, 13.2276)">
<rect x="-0.0650" y="-3.1900" width="0.1300" height="3.0038" ry="0.0400" fill="currentColor"/>
</g>
<g transform="translate(100.6264, 13.2276)">
<path transform="scale(0.0040, -0.0040)" d="M0 -46c0 91 116 182 217 182c63 0 109 -35 109 -90c0 -87 -110 -182 -220 -182c-67 0 -106 39 -106 90z" fill="currentColor"/>
</g>
<g transform="translate(101.8656, 13.2276)">
<rect x="-0.0650" y="-3.1900" width="0.1300" height="3.0038" ry="0.0400" fill="currentColor"/>
</g>
<g transform="translate(106.4746, 13.2276)">
<path transform="scale(0.0040, -0.0040)" d="M0 -46c0 91 116 182 217 182c63 0 109 -35 109 -90c0 -87 -110 -182 -220 -182c-67 0 -106 39 -106 90z" fill="currentColor"/>
</g>
<g transform="translate(103.7954, 13.2276)">
<path transform="scale(0.0040, -0.0040)" d="M0 -46c0 91 116 182 217 182c63 0 109 -35 109 -90c0 -87 -110 -182 -220 -182c-67 0 -106 39 -106 90z" fill="currentColor"/>
</g>
<g transform="translate(105.0346, 13.2276)">
<rect x="-0.0650" y="-3.1900" width="0.1300" height="3.0038" ry="0.0400" fill="currentColor"/>
</g>
<g transform="translate(51.5735, 162.8440)">
<a xlink:href="https://lilypond.org">
<rect x="0.0000" y="-0.4748" width="16.3546" height="2.0024" fill="none" stroke="none" stroke-width="0.0"/>
</a>
</g>
<g transform="translate(51.5735, 162.8440)">
<text font-family="serif" font-size="2.2000" text-anchor="start" fill="currentColor">
<tspan>LilyPond v2.25.26</tspan>
</text>
</g>
</svg>
