<svg xmlns="http://www.w3.org/2000/svg" xmlns:xlink="http://www.w3.org/1999/xlink" version="1.2" width="165.00mm" height="15.00mm" viewBox="8.5358 -0.0000 93.8941 8.5370">
<style type="text/css">
<![CDATA[
tspan { white-space: pre; }
]]>
</style>
<g transform="translate(8.5358, 6.5370)">
<line stroke-linejoin="round" stroke-linecap="round" stroke-width="0.1000" stroke="currentColor" x1="0.0500" y1="0" x2="93.8441" y2="0"/>
</g>
<g transform="translate(102.2399, 6.5370)">
<rect x="0.0000" y="-1.0000" width="0.1900" height="2.0000" ry="0.0000" fill="currentColor"/>
</g>
<g transform="translate(80.9882, 6.5370)">
<rect x="0.0000" y="-1.0000" width="0.1900" height="2.0000" ry="0.0000" fill="currentColor"/>
</g>
<g transform="translate(55.4179, 6.5370)">
<rect x="0.0000" y="-1.0000" width="0.1900" height="2.0000" ry="0.0000" fill="currentColor"/>
</g>
<g transform="translate(34.1662, 6.5370)">
<rect x="0.0000" y="-1.0000" width="0.1900" height="2.0000" ry="0.0000" fill="currentColor"/>
</g>
<g transform="translate(12.9765, 6.5370)">
<path transform="scale(0.0040, -0.0040)" d="M0 -46c0 91 116 182 217 182c63 0 109 -35 109 -90c0 -87 -110 -182 -220 -182c-67 0 -106 39 -106 90z" fill="currentColor"/>
</g>
<g transform="translate(9.5358, 6.5370)">
<path transform="scale(0.0040, -0.0040)" d="M196 117h117c0 -48 27 -94 72 -94c8 0 12 -5 12 -11s-4 -12 -12 -12c-44 0 -87 13 -131 13s-87 -13 -131 -13c-8 0 -12 6 -12 12s4 11 12 11c45 0 73 46 73 94zM225 487c36 0 69 14 76 14c8 0 14 -6 14 -12c0 -2 -1 -3 -2 -5l-284 -330h167v131c0 34 34 27 68 72
c22 30 23 56 36 56c6 0 13 -5 13 -14v-245h72c10 0 15 -7 15 -14s-5 -15 -15 -15h-72v-8h-117v8h-167c-23 0 -31 14 -31 23c0 12 140 143 140 336c0 9 6 16 13 16c5 0 39 -13 74 -13z" fill="currentColor"/>
</g>
<g transform="translate(9.6041, 8.5370)">
<path transform="scale(0.0040, -0.0040)" d="M261 287c25 30 44 64 44 103c0 54 -55 87 -114 87c-46 0 -73 -36 -73 -71c0 -21 10 -42 31 -54zM292 269c54 -31 80 -79 80 -125c0 -73 -66 -144 -189 -144c-94 0 -183 54 -183 140c0 50 36 87 72 123c-37 28 -55 66 -55 103c0 68 60 134 174 134c80 0 157 -39 157 -110
c0 -46 -25 -86 -56 -121zM103 244c-31 -30 -59 -61 -59 -104c0 -69 66 -117 139 -117c54 0 86 42 86 83c0 24 -10 48 -35 62z" fill="currentColor"/>
</g>
<g transform="translate(14.2157, 6.5370)">
<rect x="-0.0650" y="-3.1900" width="0.1300" height="3.0038" ry="0.0400" fill="currentColor"/>
</g>
<g transform="translate(86.4066, 1.1070)">
<line stroke-linejoin="round" stroke-linecap="round" stroke-width="0.1600" stroke="currentColor" x1="13.7602" y1="-0.0000" x2="13.7602" y2="0.7000"/>
</g>
<g transform="translate(86.4066, 1.1070)">
<line stroke-linejoin="round" stroke-linecap="round" stroke-width="0.1600" stroke="currentColor" x1="-0.2000" y1="-0.0000" x2="-0.2000" y2="0.7000"/>
</g>
<g transform="translate(86.4066, 1.1070)">
<line stroke-linejoin="round" stroke-linecap="round" stroke-width="0.1600" stroke="currentColor" x1="13.7602" y1="-0.0000" x2="8.0300" y2="-0.0000"/>
</g>
<g transform="translate(86.4066, 1.1070)">
<line stroke-linejoin="round" stroke-linecap="round" stroke-width="0.1600" stroke="currentColor" x1="-0.2000" y1="-0.0000" x2="5.7302" y2="-0.0000"/>
</g>
<g transform="translate(15.4856, 6.5370)">
<path transform="scale(0.0040, -0.0040)" d="M0 -46c0 91 116 182 217 182c63 0 109 -35 109 -90c0 -87 -110 -182 -220 -182c-67 0 -106 39 -106 90z" fill="currentColor"/>
</g>
<g transform="translate(16.7248, 6.5370)">
<rect x="-0.0650" y="-3.1900" width="0.1300" height="3.0038" ry="0.0400" fill="currentColor"/>
</g>
<g transform="translate(86.4066, 3.3470)">
<polygon stroke-linejoin="round" stroke-linecap="round" stroke-width="0.0800" fill="currentColor" stroke="currentColor" points="13.5202 -0.2000 13.5202 0.2000 0.0400 0.2000 0.0400 -0.2000"/>
</g>
<g transform="translate(86.4066, 4.1570)">
<polygon stroke-linejoin="round" stroke-linecap="round" stroke-width="0.0800" fill="currentColor" stroke="currentColor" points="13.5202 -1.0100 13.5202 -0.6100 0.0400 0.2000 0.0400 -0.2000"/>
</g>
<g transform="translate(18.0509, 6.5370)">
<path transform="scale(0.0040, -0.0040)" d="M0 -46c0 91 116 182 217 182c63 0 109 -35 109 -90c0 -87 -110 -182 -220 -182c-67 0 -106 39 -106 90z" fill="currentColor"/>
</g>
<g transform="translate(19.2901, 6.5370)">
<rect x="-0.0650" y="-3.1900" width="0.1300" height="3.0038" ry="0.0400" fill="currentColor"/>
</g>
<g transform="scale(0.7500, 0.7500)">
<g transform="translate(92.4399, 2.5134)">
<path transform="scale(0.0032, -0.0032)" d="M76 -103c39 0 197 107 224 139c7 8 10 18 10 27c0 21 -17 40 -40 40c-39 0 -197 -107 -224 -139c-7 -8 -10 -18 -10 -27c0 -21 17 -40 40 -40zM0 -63c0 40 15 201 253 201c43 0 93 -10 93 -75c0 -40 -15 -201 -253 -201c-43 0 -93 10 -93 75z" fill="currentColor"/>
</g>
<g transform="translate(93.4732, 2.9102)">
<rect x="-0.0650" y="-2.9102" width="0.1300" height="2.3185" ry="0.0400" fill="currentColor"/>
</g>
</g>
<g transform="translate(20.7721, 6.5370)">
<path transform="scale(0.0040, -0.0040)" d="M0 -46c0 91 116 182 217 182c63 0 109 -35 109 -90c0 -87 -110 -182 -220 -182c-67 0 -106 39 -106 90z" fill="currentColor"/>
</g>
<g transform="translate(22.0113, 6.5370)">
<rect x="-0.0650" y="-3.1900" width="0.1300" height="3.0038" ry="0.0400" fill="currentColor"/>
</g>
<g transform="translate(60.9728, 1.1070)">
<line stroke-linejoin="round" stroke-linecap="round" stroke-width="0.1600" stroke="currentColor" x1="17.7381" y1="-0.0000" x2="17.7381" y2="0.7000"/>
</g>
<g transform="translate(60.9728, 1.1070)">
<line stroke-linejoin="round" stroke-linecap="round" stroke-width="0.1600" stroke="currentColor" x1="-0.2000" y1="-0.0000" x2="-0.2000" y2="0.7000"/>
</g>
<g transform="translate(60.9728, 1.1070)">
<line stroke-linejoin="round" stroke-linecap="round" stroke-width="0.1600" stroke="currentColor" x1="17.7381" y1="-0.0000" x2="9.7809" y2="-0.0000"/>
</g>
<g transform="translate(60.9728, 1.1070)">
<line stroke-linejoin="round" stroke-linecap="round" stroke-width="0.1600" stroke="currentColor" x1="-0.2000" y1="-0.0000" x2="7.9572" y2="-0.0000"/>
</g>
<g transform="translate(23.6984, 6.5370)">
<path transform="scale(0.0040, -0.0040)" d="M0 -46c0 91 116 182 217 182c63 0 109 -35 109 -90c0 -87 -110 -182 -220 -182c-67 0 -106 39 -106 90z" fill="currentColor"/>
</g>
<g transform="translate(24.9376, 6.5370)">
<rect x="-0.0650" y="-3.1900" width="0.1300" height="3.0038" ry="0.0400" fill="currentColor"/>
</g>
<g transform="translate(60.9728, 3.3470)">
<polygon stroke-linejoin="round" stroke-linecap="round" stroke-width="0.0800" fill="currentColor" stroke="currentColor" points="17.4981 -0.2000 17.4981 0.2000 0.0400 0.2000 0.0400 -0.2000"/>
</g>
<g transform="translate(60.9728, 4.1570)">
<polygon stroke-linejoin="round" stroke-linecap="round" stroke-width="0.0800" fill="currentColor" stroke="currentColor" points="17.4981 -1.0100 17.4981 -0.6100 0.0400 0.2000 0.0400 -0.2000"/>
</g>
<g transform="translate(26.8932, 6.5370)">
<path transform="scale(0.0040, -0.0040)" d="M0 -46c0 91 116 182 217 182c63 0 109 -35 109 -90c0 -87 -110 -182 -220 -182c-67 0 -106 39 -106 90z" fill="currentColor"/>
</g>
<g transform="translate(28.1324, 6.5370)">
<rect x="-0.0650" y="-3.1900" width="0.1300" height="3.0038" ry="0.0400" fill="currentColor"/>
</g>
<g transform="scale(0.7500, 0.7500)">
<g transform="translate(60.9530, 2.5134)">
<path transform="scale(0.0032, -0.0032)" d="M0 -43c0 92 111 181 211 181c65 0 115 -37 115 -95c0 -88 -106 -181 -215 -181c-70 0 -111 41 -111 95z" fill="currentColor"/>
</g>
<g transform="translate(62.3357, 2.5134)">
<path transform="scale(0.0032, -0.0032)" d="M0 0c0 30 25 55 55 55s55 -25 55 -55s-25 -55 -55 -55s-55 25 -55 55z" fill="currentColor"/>
</g>
<g transform="translate(61.9205, 2.9102)">
<rect x="-0.0650" y="-2.9102" width="0.1300" height="2.3774" ry="0.0400" fill="currentColor"/>
</g>
</g>
<g transform="translate(30.3846, 6.5370)">
<path transform="scale(0.0040, -0.0040)" d="M0 -46c0 91 116 182 217 182c63 0 109 -35 109 -90c0 -87 -110 -182 -220 -182c-67 0 -106 39 -106 90z" fill="currentColor"/>
</g>
<g transform="translate(31.6238, 6.5370)">
<rect x="-0.0650" y="-3.1900" width="0.1300" height="3.0038" ry="0.0400" fill="currentColor"/>
</g>
<g transform="translate(39.5845, 1.1070)">
<line stroke-linejoin="round" stroke-linecap="round" stroke-width="0.1600" stroke="currentColor" x1="13.7602" y1="-0.0000" x2="13.7602" y2="0.7000"/>
</g>
<g transform="translate(39.5845, 1.1070)">
<line stroke-linejoin="round" stroke-linecap="round" stroke-width="0.1600" stroke="currentColor" x1="-0.2000" y1="-0.0000" x2="-0.2000" y2="0.7000"/>
</g>
<g transform="translate(39.5845, 1.1070)">
<line stroke-linejoin="round" stroke-linecap="round" stroke-width="0.1600" stroke="currentColor" x1="13.7602" y1="-0.0000" x2="8.0300" y2="-0.0000"/>
</g>
<g transform="translate(39.5845, 1.1070)">
<line stroke-linejoin="round" stroke-linecap="round" stroke-width="0.1600" stroke="currentColor" x1="-0.2000" y1="-0.0000" x2="5.7302" y2="-0.0000"/>
</g>
<g transform="translate(39.5845, 3.3470)">
<polygon stroke-linejoin="round" stroke-linecap="round" stroke-width="0.0800" fill="currentColor" stroke="currentColor" points="13.5202 -0.2000 13.5202 0.2000 0.0400 0.2000 0.0400 -0.2000"/>
</g>
<g transform="translate(39.5845, 4.1570)">
<polygon stroke-linejoin="round" stroke-linecap="round" stroke-width="0.0800" fill="currentColor" stroke="currentColor" points="13.5202 -1.0100 13.5202 -0.6100 0.0400 0.2000 0.0400 -0.2000"/>
</g>
<g transform="translate(38.4103, 6.5370)">
<path transform="scale(0.0040, -0.0040)" d="M0 -46c0 91 116 182 217 182c63 0 109 -35 109 -90c0 -87 -110 -182 -220 -182c-67 0 -106 39 -106 90z" fill="currentColor"/>
</g>
<g transform="translate(35.1745, 6.5370)">
<path transform="scale(0.0040, -0.0040)" d="M263 265c0 -33 70 -23 70 -125c0 -92 -79 -140 -179 -140c-79 0 -154 42 -154 113c0 36 30 66 66 66s65 -30 65 -66c0 -25 -40 -28 -40 -53c0 -27 32 -37 63 -37c49 0 63 61 63 117v16c0 54 -2 94 -50 94h-80c-10 0 -14 8 -14 15s4 14 14 14h80c49 0 50 43 50 99v8
c0 54 -18 91 -67 91c-28 0 -57 -9 -57 -33c0 -22 35 -25 35 -47c0 -32 -25 -58 -57 -58s-58 26 -58 58c0 64 67 103 137 103c91 0 169 -33 169 -114c0 -122 -56 -80 -56 -121z" fill="currentColor"/>
</g>
<g transform="translate(35.1062, 8.5370)">
<path transform="scale(0.0040, -0.0040)" d="M261 287c25 30 44 64 44 103c0 54 -55 87 -114 87c-46 0 -73 -36 -73 -71c0 -21 10 -42 31 -54zM292 269c54 -31 80 -79 80 -125c0 -73 -66 -144 -189 -144c-94 0 -183 54 -183 140c0 50 36 87 72 123c-37 28 -55 66 -55 103c0 68 60 134 174 134c80 0 157 -39 157 -110
c0 -46 -25 -86 -56 -121zM103 244c-31 -30 -59 -61 -59 -104c0 -69 66 -117 139 -117c54 0 86 42 86 83c0 24 -10 48 -35 62z" fill="currentColor"/>
</g>
<g transform="translate(39.6495, 6.5370)">
<rect x="-0.0650" y="-3.1900" width="0.1300" height="3.0038" ry="0.0400" fill="currentColor"/>
</g>
<g transform="scale(0.7500, 0.7500)">
<g transform="translate(30.0105, 2.5134)">
<path transform="scale(0.0032, -0.0032)" d="M76 -103c39 0 197 107 224 139c7 8 10 18 10 27c0 21 -17 40 -40 40c-39 0 -197 -107 -224 -139c-7 -8 -10 -18 -10 -27c0 -21 17 -40 40 -40zM0 -63c0 40 15 201 253 201c43 0 93 -10 93 -75c0 -40 -15 -201 -253 -201c-43 0 -93 10 -93 75z" fill="currentColor"/>
</g>
<g transform="translate(31.0438, 2.9102)">
<rect x="-0.0650" y="-2.9102" width="0.1300" height="2.3185" ry="0.0400" fill="currentColor"/>
</g>
</g>
<g transform="translate(40.6685, 6.5370)">
<path transform="scale(0.0040, -0.0040)" d="M0 -46c0 91 116 182 217 182c63 0 109 -35 109 -90c0 -87 -110 -182 -220 -182c-67 0 -106 39 -106 90z" fill="currentColor"/>
</g>
<g transform="translate(41.9077, 6.5370)">
<rect x="-0.0650" y="-3.1900" width="0.1300" height="3.0038" ry="0.0400" fill="currentColor"/>
</g>
<g transform="translate(14.1507, 1.1070)">
<line stroke-linejoin="round" stroke-linecap="round" stroke-width="0.1600" stroke="currentColor" x1="17.7381" y1="0.0000" x2="17.7381" y2="0.7000"/>
</g>
<g transform="translate(14.1507, 1.1070)">
<line stroke-linejoin="round" stroke-linecap="round" stroke-width="0.1600" stroke="currentColor" x1="-0.2000" y1="-0.0000" x2="-0.2000" y2="0.7000"/>
</g>
<g transform="translate(14.1507, 1.1070)">
<line stroke-linejoin="round" stroke-linecap="round" stroke-width="0.1600" stroke="currentColor" x1="17.7381" y1="0.0000" x2="9.7809" y2="0.0000"/>
</g>
<g transform="translate(14.1507, 1.1070)">
<line stroke-linejoin="round" stroke-linecap="round" stroke-width="0.1600" stroke="currentColor" x1="-0.2000" y1="-0.0000" x2="7.9572" y2="0.0000"/>
</g>
<g transform="translate(43.0262, 6.5370)">
<path transform="scale(0.0040, -0.0040)" d="M0 -46c0 91 116 182 217 182c63 0 109 -35 109 -90c0 -87 -110 -182 -220 -182c-67 0 -106 39 -106 90z" fill="currentColor"/>
</g>
<g transform="translate(44.2654, 6.5370)">
<rect x="-0.0650" y="-3.1900" width="0.1300" height="3.0038" ry="0.0400" fill="currentColor"/>
</g>
<g transform="translate(14.1507, 3.3470)">
<polygon stroke-linejoin="round" stroke-linecap="round" stroke-width="0.0800" fill="currentColor" stroke="currentColor" points="17.4981 -0.2000 17.4981 0.2000 0.0400 0.2000 0.0400 -0.2000"/>
</g>
<g transform="translate(14.1507, 4.1570)">
<polygon stroke-linejoin="round" stroke-linecap="round" stroke-width="0.0800" fill="currentColor" stroke="currentColor" points="17.4981 -1.0100 17.4981 -0.6100 0.0400 0.2000 0.0400 -0.2000"/>
</g>
<g transform="translate(45.6187, 6.5370)">
<path transform="scale(0.0040, -0.0040)" d="M0 -46c0 91 116 182 217 182c63 0 109 -35 109 -90c0 -87 -110 -182 -220 -182c-67 0 -106 39 -106 90z" fill="currentColor"/>
</g>
<g transform="translate(46.8579, 6.5370)">
<rect x="-0.0650" y="-3.1900" width="0.1300" height="3.0038" ry="0.0400" fill="currentColor"/>
</g>
<g transform="translate(48.5450, 6.5370)">
<path transform="scale(0.0040, -0.0040)" d="M0 -46c0 91 116 182 217 182c63 0 109 -35 109 -90c0 -87 -110 -182 -220 -182c-67 0 -106 39 -106 90z" fill="currentColor"/>
</g>
<g transform="translate(49.7842, 6.5370)">
<rect x="-0.0650" y="-3.1900" width="0.1300" height="3.0038" ry="0.0400" fill="currentColor"/>
</g>
<g transform="translate(51.8405, 6.5370)">
<path transform="scale(0.0040, -0.0040)" d="M0 -46c0 91 116 182 217 182c63 0 109 -35 109 -90c0 -87 -110 -182 -220 -182c-67 0 -106 39 -106 90z" fill="currentColor"/>
</g>
<g transform="translate(53.0797, 6.5370)">
<rect x="-0.0650" y="-3.1900" width="0.1300" height="3.0038" ry="0.0400" fill="currentColor"/>
</g>
<g transform="translate(59.7986, 6.5370)">
<path transform="scale(0.0040, -0.0040)" d="M0 -46c0 91 116 182 217 182c63 0 109 -35 109 -90c0 -87 -110 -182 -220 -182c-67 0 -106 39 -106 90z" fill="currentColor"/>
</g>
<g transform="translate(56.3579, 6.5370)">
<path transform="scale(0.0040, -0.0040)" d="M196 117h117c0 -48 27 -94 72 -94c8 0 12 -5 12 -11s-4 -12 -12 -12c-44 0 -87 13 -131 13s-87 -13 -131 -13c-8 0 -12 6 -12 12s4 11 12 11c45 0 73 46 73 94zM225 487c36 0 69 14 76 14c8 0 14 -6 14 -12c0 -2 -1 -3 -2 -5l-284 -330h167v131c0 34 34 27 68 72
c22 30 23 56 36 56c6 0 13 -5 13 -14v-245h72c10 0 15 -7 15 -14s-5 -15 -15 -15h-72v-8h-117v8h-167c-23 0 -31 14 -31 23c0 12 140 143 140 336c0 9 6 16 13 16c5 0 39 -13 74 -13z" fill="currentColor"/>
</g>
<g transform="translate(56.4262, 8.5370)">
<path transform="scale(0.0040, -0.0040)" d="M261 287c25 30 44 64 44 103c0 54 -55 87 -114 87c-46 0 -73 -36 -73 -71c0 -21 10 -42 31 -54zM292 269c54 -31 80 -79 80 -125c0 -73 -66 -144 -189 -144c-94 0 -183 54 -183 140c0 50 36 87 72 123c-37 28 -55 66 -55 103c0 68 60 134 174 134c80 0 157 -39 157 -110
c0 -46 -25 -86 -56 -121zM103 244c-31 -30 -59 -61 -59 -104c0 -69 66 -117 139 -117c54 0 86 42 86 83c0 24 -10 48 -35 62z" fill="currentColor"/>
</g>
<g transform="translate(61.0378, 6.5370)">
<rect x="-0.0650" y="-3.1900" width="0.1300" height="3.0038" ry="0.0400" fill="currentColor"/>
</g>
<g transform="scale(0.7500, 0.7500)">
<g transform="translate(123.3824, 2.5134)">
<path transform="scale(0.0032, -0.0032)" d="M0 -43c0 92 111 181 211 181c65 0 115 -37 115 -95c0 -88 -106 -181 -215 -181c-70 0 -111 41 -111 95z" fill="currentColor"/>
</g>
<g transform="translate(124.7651, 2.5134)">
<path transform="scale(0.0032, -0.0032)" d="M0 0c0 30 25 55 55 55s55 -25 55 -55s-25 -55 -55 -55s-55 25 -55 55z" fill="currentColor"/>
</g>
<g transform="translate(124.3499, 2.9102)">
<rect x="-0.0650" y="-2.9102" width="0.1300" height="2.3774" ry="0.0400" fill="currentColor"/>
</g>
</g>
<g transform="translate(62.3076, 6.5370)">
<path transform="scale(0.0040, -0.0040)" d="M0 -46c0 91 116 182 217 182c63 0 109 -35 109 -90c0 -87 -110 -182 -220 -182c-67 0 -106 39 -106 90z" fill="currentColor"/>
</g>
<g transform="translate(63.5468, 6.5370)">
<rect x="-0.0650" y="-3.1900" width="0.1300" height="3.0038" ry="0.0400" fill="currentColor"/>
</g>
<g transform="translate(64.8729, 6.5370)">
<path transform="scale(0.0040, -0.0040)" d="M0 -46c0 91 116 182 217 182c63 0 109 -35 109 -90c0 -87 -110 -182 -220 -182c-67 0 -106 39 -106 90z" fill="currentColor"/>
</g>
<g transform="translate(66.1121, 6.5370)">
<rect x="-0.0650" y="-3.1900" width="0.1300" height="3.0038" ry="0.0400" fill="currentColor"/>
</g>
<g transform="translate(67.5941, 6.5370)">
<path transform="scale(0.0040, -0.0040)" d="M0 -46c0 91 116 182 217 182c63 0 109 -35 109 -90c0 -87 -110 -182 -220 -182c-67 0 -106 39 -106 90z" fill="currentColor"/>
</g>
<g transform="translate(68.8333, 6.5370)">
<rect x="-0.0650" y="-3.1900" width="0.1300" height="3.0038" ry="0.0400" fill="currentColor"/>
</g>
<g transform="translate(70.5205, 6.5370)">
<path transform="scale(0.0040, -0.0040)" d="M0 -46c0 91 116 182 217 182c63 0 109 -35 109 -90c0 -87 -110 -182 -220 -182c-67 0 -106 39 -106 90z" fill="currentColor"/>
</g>
<g transform="translate(71.7597, 6.5370)">
<rect x="-0.0650" y="-3.1900" width="0.1300" height="3.0038" ry="0.0400" fill="currentColor"/>
</g>
<g transform="translate(73.7153, 6.5370)">
<path transform="scale(0.0040, -0.0040)" d="M0 -46c0 91 116 182 217 182c63 0 109 -35 109 -90c0 -87 -110 -182 -220 -182c-67 0 -106 39 -106 90z" fill="currentColor"/>
</g>
<g transform="translate(74.9545, 6.5370)">
<rect x="-0.0650" y="-3.1900" width="0.1300" height="3.0038" ry="0.0400" fill="currentColor"/>
</g>
<g transform="translate(77.2067, 6.5370)">
<path transform="scale(0.0040, -0.0040)" d="M0 -46c0 91 116 182 217 182c63 0 109 -35 109 -90c0 -87 -110 -182 -220 -182c-67 0 -106 39 -106 90z" fill="currentColor"/>
</g>
<g transform="translate(78.4459, 6.5370)">
<rect x="-0.0650" y="-3.1900" width="0.1300" height="3.0038" ry="0.0400" fill="currentColor"/>
</g>
<g transform="translate(99.9018, 6.5370)">
<rect x="-0.0650" y="-3.1900" width="0.1300" height="3.0038" ry="0.0400" fill="currentColor"/>
</g>
<g transform="translate(98.6626, 6.5370)">
<path transform="scale(0.0040, -0.0040)" d="M0 -46c0 91 116 182 217 182c63 0 109 -35 109 -90c0 -87 -110 -182 -220 -182c-67 0 -106 39 -106 90z" fill="currentColor"/>
</g>
<g transform="translate(85.2324, 6.5370)">
<path transform="scale(0.0040, -0.0040)" d="M0 -46c0 91 116 182 217 182c63 0 109 -35 109 -90c0 -87 -110 -182 -220 -182c-67 0 -106 39 -106 90z" fill="currentColor"/>
</g>
<g transform="translate(81.9965, 6.5370)">
<path transform="scale(0.0040, -0.0040)" d="M263 265c0 -33 70 -23 70 -125c0 -92 -79 -140 -179 -140c-79 0 -154 42 -154 113c0 36 30 66 66 66s65 -30 65 -66c0 -25 -40 -28 -40 -53c0 -27 32 -37 63 -37c49 0 63 61 63 117v16c0 54 -2 94 -50 94h-80c-10 0 -14 8 -14 15s4 14 14 14h80c49 0 50 43 50 99v8
c0 54 -18 91 -67 91c-28 0 -57 -9 -57 -33c0 -22 35 -25 35 -47c0 -32 -25 -58 -57 -58s-58 26 -58 58c0 64 67 103 137 103c91 0 169 -33 169 -114c0 -122 -56 -80 -56 -121z" fill="currentColor"/>
</g>
<g transform="translate(81.9282, 8.5370)">
<path transform="scale(0.0040, -0.0040)" d="M261 287c25 30 44 64 44 103c0 54 -55 87 -114 87c-46 0 -73 -36 -73 -71c0 -21 10 -42 31 -54zM292 269c54 -31 80 -79 80 -125c0 -73 -66 -144 -189 -144c-94 0 -183 54 -183 140c0 50 36 87 72 123c-37 28 -55 66 -55 103c0 68 60 134 174 134c80 0 157 -39 157 -110
c0 -46 -25 -86 -56 -121zM103 244c-31 -30 -59 -61 -59 -104c0 -69 66 -117 139 -117c54 0 86 42 86 83c0 24 -10 48 -35 62z" fill="currentColor"/>
</g>
<g transform="translate(86.4716, 6.5370)">
<rect x="-0.0650" y="-3.1900" width="0.1300" height="3.0038" ry="0.0400" fill="currentColor"/>
</g>
<g transform="translate(87.4905, 6.5370)">
<path transform="scale(0.0040, -0.0040)" d="M0 -46c0 91 116 182 217 182c63 0 109 -35 109 -90c0 -87 -110 -182 -220 -182c-67 0 -106 39 -106 90z" fill="currentColor"/>
</g>
<g transform="translate(88.7297, 6.5370)">
<rect x="-0.0650" y="-3.1900" width="0.1300" height="3.0038" ry="0.0400" fill="currentColor"/>
</g>
<g transform="translate(89.8482, 6.5370)">
<path transform="scale(0.0040, -0.0040)" d="M0 -46c0 91 116 182 217 182c63 0 109 -35 109 -90c0 -87 -110 -182 -220 -182c-67 0 -106 39 -106 90z" fill="currentColor"/>
</g>
<g transform="translate(91.0874, 6.5370)">
<rect x="-0.0650" y="-3.1900" width="0.1300" height="3.0038" ry="0.0400" fill="currentColor"/>
</g>
<g transform="translate(92.4407, 6.5370)">
<path transform="scale(0.0040, -0.0040)" d="M0 -46c0 91 116 182 217 182c63 0 109 -35 109 -90c0 -87 -110 -182 -220 -182c-67 0 -106 39 -106 90z" fill="currentColor"/>
</g>
<g transform="translate(93.6799, 6.5370)">
<rect x="-0.0650" y="-3.1900" width="0.1300" height="3.0038" ry="0.0400" fill="currentColor"/>
</g>
<g transform="translate(95.3671, 6.5370)">
<path transform="scale(0.0040, -0.0040)" d="M0 -46c0 91 116 182 217 182c63 0 109 -35 109 -90c0 -87 -110 -182 -220 -182c-67 0 -106 39 -106 90z" fill="currentColor"/>
</g>
<g transform="translate(96.6063, 6.5370)">
<rect x="-0.0650" y="-3.1900" width="0.1300" height="3.0038" ry="0.0400" fill="currentColor"/>
</g>
</svg>
