<svg xmlns="http://www.w3.org/2000/svg" xmlns:xlink="http://www.w3.org/1999/xlink" version="1.2" width="101.97mm" height="12.51mm" viewBox="8.5358 -0.0000 58.0291 7.1183">
<style type="text/css">
<![CDATA[
tspan { white-space: pre; }
]]>
</style>
<g transform="translate(8.5358, 5.1183)">
<line stroke-linejoin="round" stroke-linecap="round" stroke-width="0.1000" stroke="currentColor" x1="0.0500" y1="0" x2="57.9791" y2="0"/>
</g>
<g transform="translate(66.3749, 5.1183)">
<rect x="0.0000" y="-1.0000" width="0.1900" height="2.0000" ry="0.0000" fill="currentColor"/>
</g>
<g transform="translate(57.0457, 5.1183)">
<rect x="0.0000" y="-1.0000" width="0.1900" height="2.0000" ry="0.0000" fill="currentColor"/>
</g>
<g transform="translate(43.3766, 5.1183)">
<rect x="0.0000" y="-1.0000" width="0.1900" height="2.0000" ry="0.0000" fill="currentColor"/>
</g>
<g transform="translate(35.9380, 5.1183)">
<rect x="0.0000" y="-1.0000" width="0.1900" height="2.0000" ry="0.0000" fill="currentColor"/>
</g>
<g transform="translate(24.6242, 5.1183)">
<rect x="0.0000" y="-1.0000" width="0.1900" height="2.0000" ry="0.0000" fill="currentColor"/>
</g>
<g transform="translate(13.0040, 5.1183)">
<path transform="scale(0.0040, -0.0040)" d="M0 -46c0 91 116 182 217 182c63 0 109 -35 109 -90c0 -87 -110 -182 -220 -182c-67 0 -106 39 -106 90z" fill="currentColor"/>
</g>
<g transform="translate(9.5358, 5.1183)">
<path transform="scale(0.0040, -0.0040)" d="M229 0c-88 0 -90 66 -144 66c-30 0 -59 -20 -62 -55c-1 -7 -6 -11 -11 -11c-6 0 -12 4 -12 11v2c15 172 232 165 232 342c0 59 -16 122 -67 122c-25 0 -49 -14 -49 -37c0 -27 35 -41 35 -68c0 -38 -31 -69 -69 -69s-69 31 -69 69c0 76 72 128 152 128
c95 0 183 -57 183 -145c0 -151 -150 -159 -246 -220c9 2 18 3 27 3c83 0 111 -59 171 -59c48 0 38 38 55 38c6 0 12 -5 12 -12c0 -22 -44 -105 -138 -105z" fill="currentColor"/>
</g>
<g transform="translate(9.5358, 7.1183)">
<path transform="scale(0.0040, -0.0040)" d="M261 287c25 30 44 64 44 103c0 54 -55 87 -114 87c-46 0 -73 -36 -73 -71c0 -21 10 -42 31 -54zM292 269c54 -31 80 -79 80 -125c0 -73 -66 -144 -189 -144c-94 0 -183 54 -183 140c0 50 36 87 72 123c-37 28 -55 66 -55 103c0 68 60 134 174 134c80 0 157 -39 157 -110
c0 -46 -25 -86 -56 -121zM103 244c-31 -30 -59 -61 -59 -104c0 -69 66 -117 139 -117c54 0 86 42 86 83c0 24 -10 48 -35 62z" fill="currentColor"/>
</g>
<g transform="translate(14.2432, 5.1183)">
<rect x="-0.0650" y="-3.1900" width="0.1300" height="3.0038" ry="0.0400" fill="currentColor"/>
</g>
<g transform="translate(59.3099, 2.1183)">
<polygon stroke-linejoin="round" stroke-linecap="round" stroke-width="0.0800" fill="currentColor" stroke="currentColor" points="4.1805 -0.2000 4.1805 0.2000 0.0400 0.2000 0.0400 -0.2000"/>
</g>
<g transform="translate(15.8945, 5.1183)">
<path transform="scale(0.0040, -0.0040)" d="M0 -46c0 91 116 182 217 182c63 0 109 -35 109 -90c0 -87 -110 -182 -220 -182c-67 0 -106 39 -106 90z" fill="currentColor"/>
</g>
<g transform="translate(17.1337, 5.1183)">
<rect x="-0.0650" y="-3.1900" width="0.1300" height="3.0038" ry="0.0400" fill="currentColor"/>
</g>
<g transform="translate(50.2704, 1.1561)">
<text font-family="serif" font-style="italic" font-size="1.7459" text-anchor="start" fill="currentColor">
<tspan>5</tspan>
</text>
</g>
<g transform="translate(18.7850, 5.1183)">
<path transform="scale(0.0040, -0.0040)" d="M0 -46c0 91 116 182 217 182c63 0 109 -35 109 -90c0 -87 -110 -182 -220 -182c-67 0 -106 39 -106 90z" fill="currentColor"/>
</g>
<g transform="translate(20.0242, 5.1183)">
<rect x="-0.0650" y="-3.1900" width="0.1300" height="3.0038" ry="0.0400" fill="currentColor"/>
</g>
<g transform="translate(21.6755, 5.1183)">
<path transform="scale(0.0040, -0.0040)" d="M0 -46c0 91 116 182 217 182c63 0 109 -35 109 -90c0 -87 -110 -182 -220 -182c-67 0 -106 39 -106 90z" fill="currentColor"/>
</g>
<g transform="translate(22.9147, 5.1183)">
<rect x="-0.0650" y="-3.1900" width="0.1300" height="3.0038" ry="0.0400" fill="currentColor"/>
</g>
<g transform="translate(45.6408, 1.9283)">
<polygon stroke-linejoin="round" stroke-linecap="round" stroke-width="0.0800" fill="currentColor" stroke="currentColor" points="10.1068 -0.2000 10.1068 0.2000 0.0400 0.2000 0.0400 -0.2000"/>
</g>
<g transform="translate(45.6408, 2.7383)">
<polygon stroke-linejoin="round" stroke-linecap="round" stroke-width="0.0800" fill="currentColor" stroke="currentColor" points="10.1068 -0.2000 10.1068 0.2000 0.0400 0.2000 0.0400 -0.2000"/>
</g>
<g transform="translate(29.8981, 1.3580)">
<text font-family="serif" font-style="italic" font-size="1.7459" text-anchor="start" fill="currentColor">
<tspan>3</tspan>
</text>
</g>
<g transform="translate(25.7142, 5.1183)">
<path transform="scale(0.0040, -0.0040)" d="M0 -46c0 91 116 182 217 182c63 0 109 -35 109 -90c0 -87 -110 -182 -220 -182c-67 0 -106 39 -106 90z" fill="currentColor"/>
</g>
<g transform="translate(26.9534, 5.1183)">
<rect x="-0.0650" y="-3.0000" width="0.1300" height="2.8138" ry="0.0400" fill="currentColor"/>
</g>
<g transform="translate(26.8884, 2.1183)">
<polygon stroke-linejoin="round" stroke-linecap="round" stroke-width="0.0800" fill="currentColor" stroke="currentColor" points="6.8671 -0.2000 6.8671 0.2000 0.0400 0.2000 0.0400 -0.2000"/>
</g>
<g transform="translate(29.1027, 5.1183)">
<path transform="scale(0.0040, -0.0040)" d="M0 -46c0 91 116 182 217 182c63 0 109 -35 109 -90c0 -87 -110 -182 -220 -182c-67 0 -106 39 -106 90z" fill="currentColor"/>
</g>
<g transform="translate(30.3419, 5.1183)">
<rect x="-0.0650" y="-3.0000" width="0.1300" height="2.8138" ry="0.0400" fill="currentColor"/>
</g>
<g transform="translate(14.1782, 1.9283)">
<polygon stroke-linejoin="round" stroke-linecap="round" stroke-width="0.0800" fill="currentColor" stroke="currentColor" points="8.7615 -0.2000 8.7615 0.2000 0.0400 0.2000 0.0400 -0.2000"/>
</g>
<g transform="translate(14.1782, 2.7383)">
<polygon stroke-linejoin="round" stroke-linecap="round" stroke-width="0.0800" fill="currentColor" stroke="currentColor" points="8.7615 -0.2000 8.7615 0.2000 0.0400 0.2000 0.0400 -0.2000"/>
</g>
<g transform="translate(32.4913, 5.1183)">
<path transform="scale(0.0040, -0.0040)" d="M0 -46c0 91 116 182 217 182c63 0 109 -35 109 -90c0 -87 -110 -182 -220 -182c-67 0 -106 39 -106 90z" fill="currentColor"/>
</g>
<g transform="translate(33.7305, 5.1183)">
<rect x="-0.0650" y="-3.0000" width="0.1300" height="2.8138" ry="0.0400" fill="currentColor"/>
</g>
<g transform="translate(38.0280, 5.1183)">
<path transform="scale(0.0040, -0.0040)" d="M0 -46c0 91 116 182 217 182c63 0 109 -35 109 -90c0 -87 -110 -182 -220 -182c-67 0 -106 39 -106 90z" fill="currentColor"/>
</g>
<g transform="translate(39.2672, 5.1183)">
<rect x="-0.0650" y="-3.3333" width="0.1300" height="3.1471" ry="0.0400" fill="currentColor"/>
</g>
<g transform="translate(44.4666, 5.1183)">
<path transform="scale(0.0040, -0.0040)" d="M0 -46c0 91 116 182 217 182c63 0 109 -35 109 -90c0 -87 -110 -182 -220 -182c-67 0 -106 39 -106 90z" fill="currentColor"/>
</g>
<g transform="translate(45.7058, 5.1183)">
<rect x="-0.0650" y="-3.1900" width="0.1300" height="3.0038" ry="0.0400" fill="currentColor"/>
</g>
<g transform="translate(46.9708, 5.1183)">
<path transform="scale(0.0040, -0.0040)" d="M0 -46c0 91 116 182 217 182c63 0 109 -35 109 -90c0 -87 -110 -182 -220 -182c-67 0 -106 39 -106 90z" fill="currentColor"/>
</g>
<g transform="translate(48.2100, 5.1183)">
<rect x="-0.0650" y="-3.1900" width="0.1300" height="3.0038" ry="0.0400" fill="currentColor"/>
</g>
<g transform="translate(49.4750, 5.1183)">
<path transform="scale(0.0040, -0.0040)" d="M0 -46c0 91 116 182 217 182c63 0 109 -35 109 -90c0 -87 -110 -182 -220 -182c-67 0 -106 39 -106 90z" fill="currentColor"/>
</g>
<g transform="translate(50.7142, 5.1183)">
<rect x="-0.0650" y="-3.1900" width="0.1300" height="3.0038" ry="0.0400" fill="currentColor"/>
</g>
<g transform="translate(51.9792, 5.1183)">
<path transform="scale(0.0040, -0.0040)" d="M0 -46c0 91 116 182 217 182c63 0 109 -35 109 -90c0 -87 -110 -182 -220 -182c-67 0 -106 39 -106 90z" fill="currentColor"/>
</g>
<g transform="translate(53.2184, 5.1183)">
<rect x="-0.0650" y="-3.1900" width="0.1300" height="3.0038" ry="0.0400" fill="currentColor"/>
</g>
<g transform="translate(54.4834, 5.1183)">
<path transform="scale(0.0040, -0.0040)" d="M0 -46c0 91 116 182 217 182c63 0 109 -35 109 -90c0 -87 -110 -182 -220 -182c-67 0 -106 39 -106 90z" fill="currentColor"/>
</g>
<g transform="translate(55.7226, 5.1183)">
<rect x="-0.0650" y="-3.1900" width="0.1300" height="3.0038" ry="0.0400" fill="currentColor"/>
</g>
<g transform="translate(58.1357, 5.1183)">
<path transform="scale(0.0040, -0.0040)" d="M0 -46c0 91 116 182 217 182c63 0 109 -35 109 -90c0 -87 -110 -182 -220 -182c-67 0 -106 39 -106 90z" fill="currentColor"/>
</g>
<g transform="translate(59.3749, 5.1183)">
<rect x="-0.0650" y="-3.0000" width="0.1300" height="2.8138" ry="0.0400" fill="currentColor"/>
</g>
<g transform="translate(63.4655, 5.1183)">
<rect x="-0.0650" y="-3.0000" width="0.1300" height="2.8138" ry="0.0400" fill="currentColor"/>
</g>
<g transform="translate(62.2263, 5.1183)">
<path transform="scale(0.0040, -0.0040)" d="M0 -46c0 91 116 182 217 182c63 0 109 -35 109 -90c0 -87 -110 -182 -220 -182c-67 0 -106 39 -106 90z" fill="currentColor"/>
</g>
</svg>
