<svg xmlns="http://www.w3.org/2000/svg" xmlns:xlink="http://www.w3.org/1999/xlink" version="1.2" width="90.80mm" height="9.49mm" viewBox="8.5358 -0.0250 51.6678 5.4000">
<style type="text/css">
<![CDATA[
tspan { white-space: pre; }
]]>
</style>
<g transform="translate(8.5358, 3.3750)">
<line stroke-linejoin="round" stroke-linecap="round" stroke-width="0.1000" stroke="currentColor" x1="0.0500" y1="0" x2="51.6178" y2="0"/>
</g>
<g transform="translate(60.0136, 3.3750)">
<rect x="0.0000" y="-1.0000" width="0.1900" height="2.0000" ry="0.0000" fill="currentColor"/>
</g>
<g transform="translate(43.9804, 3.3750)">
<rect x="0.0000" y="-1.0000" width="0.1900" height="2.0000" ry="0.0000" fill="currentColor"/>
</g>
<g transform="translate(27.9472, 3.3750)">
<rect x="0.0000" y="-1.0000" width="0.1900" height="2.0000" ry="0.0000" fill="currentColor"/>
</g>
<g transform="translate(52.5420, 3.3750)">
<path stroke-width="0.0800" stroke-linejoin="round" stroke-linecap="round" stroke="currentColor" fill="currentColor" d="M0.8521 0.7500C1.6937 1.5545 4.5147 1.5545 5.3563 0.7500L5.3563 0.7500C4.5147 1.4345 1.6937 1.4345 0.8521 0.7500z"/>
</g>
<g transform="translate(13.0040, 3.3750)">
<path transform="scale(0.0040, -0.0040)" d="M0 -46c0 91 116 182 217 182c63 0 109 -35 109 -90c0 -87 -110 -182 -220 -182c-67 0 -106 39 -106 90z" fill="currentColor"/>
</g>
<g transform="translate(9.6041, 3.3750)">
<path transform="scale(0.0040, -0.0040)" d="M46 500c1 0 70 -13 137 -13c66 0 138 13 139 13c9 0 15 -5 15 -11c0 -3 -75 -98 -260 -98c-9 0 -16 -8 -16 -17v-96c28 28 64 43 103 43c115 0 185 -51 185 -161c0 -94 -87 -160 -186 -160c-82 0 -163 39 -163 113c0 36 30 66 66 66s65 -30 65 -66c0 -25 -40 -28 -40 -53
c0 -30 37 -37 72 -37c57 0 70 71 70 137c0 63 -15 132 -69 132c-92 0 -101 -51 -118 -51c-8 0 -15 6 -15 15v228c0 9 7 16 15 16z" fill="currentColor"/>
</g>
<g transform="translate(9.5358, 5.3750)">
<path transform="scale(0.0040, -0.0040)" d="M261 287c25 30 44 64 44 103c0 54 -55 87 -114 87c-46 0 -73 -36 -73 -71c0 -21 10 -42 31 -54zM292 269c54 -31 80 -79 80 -125c0 -73 -66 -144 -189 -144c-94 0 -183 54 -183 140c0 50 36 87 72 123c-37 28 -55 66 -55 103c0 68 60 134 174 134c80 0 157 -39 157 -110
c0 -46 -25 -86 -56 -121zM103 244c-31 -30 -59 -61 -59 -104c0 -69 66 -117 139 -117c54 0 86 42 86 83c0 24 -10 48 -35 62z" fill="currentColor"/>
</g>
<g transform="translate(14.2432, 3.3750)">
<rect x="-0.0650" y="-3.3333" width="0.1300" height="3.1471" ry="0.0400" fill="currentColor"/>
</g>
<g transform="translate(17.9082, 3.3750)">
<path transform="scale(0.0040, -0.0040)" d="M0 -46c0 91 116 182 217 182c63 0 109 -35 109 -90c0 -87 -110 -182 -220 -182c-67 0 -106 39 -106 90z" fill="currentColor"/>
</g>
<g transform="translate(19.1474, 3.3750)">
<rect x="-0.0650" y="-3.3750" width="0.1300" height="3.1888" ry="0.0400" fill="currentColor"/>
</g>
<g transform="translate(19.2124, 0.0400)">
<path transform="scale(0.0040, -0.0040)" d="M123 -854c0 10 42 76 42 172c0 97 -94 190 -165 257v-125h-16v550h16c0 -177 201 -293 201 -470c0 -33 -9 -65 -23 -95c18 -37 29 -75 29 -117c0 -63 -15 -125 -41 -183c-5 -8 -13 -12 -20 -12c-12 0 -23 9 -23 23zM151 -517c5 15 8 31 8 47c0 96 -91 190 -159 257
c0 -118 90 -206 151 -304z" fill="currentColor"/>
</g>
<g transform="translate(45.0704, 3.3750)">
<path stroke-width="0.0800" stroke-linejoin="round" stroke-linecap="round" stroke="currentColor" fill="currentColor" d="M0.8521 0.7500C1.6937 1.5545 4.5147 1.5545 5.3563 0.7500L5.3563 0.7500C4.5147 1.4345 1.6937 1.4345 0.8521 0.7500z"/>
</g>
<g transform="translate(20.4756, 3.3750)">
<path transform="scale(0.0040, -0.0040)" d="M0 -46c0 91 116 182 217 182c63 0 109 -35 109 -90c0 -87 -110 -182 -220 -182c-67 0 -106 39 -106 90z" fill="currentColor"/>
</g>
<g transform="translate(21.7148, 3.3750)">
<rect x="-0.0650" y="-3.3333" width="0.1300" height="3.1471" ry="0.0400" fill="currentColor"/>
</g>
<g transform="translate(25.3798, 3.3750)">
<path transform="scale(0.0040, -0.0040)" d="M0 -46c0 91 116 182 217 182c63 0 109 -35 109 -90c0 -87 -110 -182 -220 -182c-67 0 -106 39 -106 90z" fill="currentColor"/>
</g>
<g transform="translate(26.6190, 3.3750)">
<rect x="-0.0650" y="-3.3750" width="0.1300" height="3.1888" ry="0.0400" fill="currentColor"/>
</g>
<g transform="translate(26.6840, 0.0400)">
<path transform="scale(0.0040, -0.0040)" d="M123 -854c0 10 42 76 42 172c0 97 -94 190 -165 257v-125h-16v550h16c0 -177 201 -293 201 -470c0 -33 -9 -65 -23 -95c18 -37 29 -75 29 -117c0 -63 -15 -125 -41 -183c-5 -8 -13 -12 -20 -12c-12 0 -23 9 -23 23zM151 -517c5 15 8 31 8 47c0 96 -91 190 -159 257
c0 -118 90 -206 151 -304z" fill="currentColor"/>
</g>
<g transform="translate(36.5088, 3.3750)">
<path stroke-width="0.0800" stroke-linejoin="round" stroke-linecap="round" stroke="currentColor" fill="currentColor" d="M0.8521 0.7500C1.6937 1.5545 4.5147 1.5545 5.3563 0.7500L5.3563 0.7500C4.5147 1.4345 1.6937 1.4345 0.8521 0.7500z"/>
</g>
<g transform="translate(29.0372, 3.3750)">
<path transform="scale(0.0040, -0.0040)" d="M0 -46c0 91 116 182 217 182c63 0 109 -35 109 -90c0 -87 -110 -182 -220 -182c-67 0 -106 39 -106 90z" fill="currentColor"/>
</g>
<g transform="translate(30.2764, 3.3750)">
<rect x="-0.0650" y="-3.3333" width="0.1300" height="3.1471" ry="0.0400" fill="currentColor"/>
</g>
<g transform="translate(29.0372, 3.3750)">
<path stroke-width="0.0800" stroke-linejoin="round" stroke-linecap="round" stroke="currentColor" fill="currentColor" d="M0.8521 0.7500C1.6937 1.5545 4.5147 1.5545 5.3563 0.7500L5.3563 0.7500C4.5147 1.4345 1.6937 1.4345 0.8521 0.7500z"/>
</g>
<g transform="translate(33.9414, 3.3750)">
<path transform="scale(0.0040, -0.0040)" d="M0 -46c0 91 116 182 217 182c63 0 109 -35 109 -90c0 -87 -110 -182 -220 -182c-67 0 -106 39 -106 90z" fill="currentColor"/>
</g>
<g transform="translate(35.1806, 3.3750)">
<rect x="-0.0650" y="-3.3750" width="0.1300" height="3.1888" ry="0.0400" fill="currentColor"/>
</g>
<g transform="translate(35.2456, 0.0400)">
<path transform="scale(0.0040, -0.0040)" d="M123 -854c0 10 42 76 42 172c0 97 -94 190 -165 257v-125h-16v550h16c0 -177 201 -293 201 -470c0 -33 -9 -65 -23 -95c18 -37 29 -75 29 -117c0 -63 -15 -125 -41 -183c-5 -8 -13 -12 -20 -12c-12 0 -23 9 -23 23zM151 -517c5 15 8 31 8 47c0 96 -91 190 -159 257
c0 -118 90 -206 151 -304z" fill="currentColor"/>
</g>
<g transform="translate(36.5088, 3.3750)">
<path transform="scale(0.0040, -0.0040)" d="M0 -46c0 91 116 182 217 182c63 0 109 -35 109 -90c0 -87 -110 -182 -220 -182c-67 0 -106 39 -106 90z" fill="currentColor"/>
</g>
<g transform="translate(37.7480, 3.3750)">
<rect x="-0.0650" y="-3.3333" width="0.1300" height="3.1471" ry="0.0400" fill="currentColor"/>
</g>
<g transform="translate(20.4756, 3.3750)">
<path stroke-width="0.0800" stroke-linejoin="round" stroke-linecap="round" stroke="currentColor" fill="currentColor" d="M0.8521 0.7500C1.6937 1.5545 4.5147 1.5545 5.3563 0.7500L5.3563 0.7500C4.5147 1.4345 1.6937 1.4345 0.8521 0.7500z"/>
</g>
<g transform="translate(41.4130, 3.3750)">
<path transform="scale(0.0040, -0.0040)" d="M0 -46c0 91 116 182 217 182c63 0 109 -35 109 -90c0 -87 -110 -182 -220 -182c-67 0 -106 39 -106 90z" fill="currentColor"/>
</g>
<g transform="translate(42.6522, 3.3750)">
<rect x="-0.0650" y="-3.3750" width="0.1300" height="3.1888" ry="0.0400" fill="currentColor"/>
</g>
<g transform="translate(42.7172, 0.0400)">
<path transform="scale(0.0040, -0.0040)" d="M123 -854c0 10 42 76 42 172c0 97 -94 190 -165 257v-125h-16v550h16c0 -177 201 -293 201 -470c0 -33 -9 -65 -23 -95c18 -37 29 -75 29 -117c0 -63 -15 -125 -41 -183c-5 -8 -13 -12 -20 -12c-12 0 -23 9 -23 23zM151 -517c5 15 8 31 8 47c0 96 -91 190 -159 257
c0 -118 90 -206 151 -304z" fill="currentColor"/>
</g>
<g transform="translate(13.0040, 3.3750)">
<path stroke-width="0.0800" stroke-linejoin="round" stroke-linecap="round" stroke="currentColor" fill="currentColor" d="M0.8521 0.7500C1.6937 1.5545 4.5147 1.5545 5.3563 0.7500L5.3563 0.7500C4.5147 1.4345 1.6937 1.4345 0.8521 0.7500z"/>
</g>
<g transform="translate(45.0704, 3.3750)">
<path transform="scale(0.0040, -0.0040)" d="M0 -46c0 91 116 182 217 182c63 0 109 -35 109 -90c0 -87 -110 -182 -220 -182c-67 0 -106 39 -106 90z" fill="currentColor"/>
</g>
<g transform="translate(46.3096, 3.3750)">
<rect x="-0.0650" y="-3.3333" width="0.1300" height="3.1471" ry="0.0400" fill="currentColor"/>
</g>
<g transform="translate(49.9746, 3.3750)">
<path transform="scale(0.0040, -0.0040)" d="M0 -46c0 91 116 182 217 182c63 0 109 -35 109 -90c0 -87 -110 -182 -220 -182c-67 0 -106 39 -106 90z" fill="currentColor"/>
</g>
<g transform="translate(51.2138, 3.3750)">
<rect x="-0.0650" y="-3.3750" width="0.1300" height="3.1888" ry="0.0400" fill="currentColor"/>
</g>
<g transform="translate(51.2788, 0.0400)">
<path transform="scale(0.0040, -0.0040)" d="M123 -854c0 10 42 76 42 172c0 97 -94 190 -165 257v-125h-16v550h16c0 -177 201 -293 201 -470c0 -33 -9 -65 -23 -95c18 -37 29 -75 29 -117c0 -63 -15 -125 -41 -183c-5 -8 -13 -12 -20 -12c-12 0 -23 9 -23 23zM151 -517c5 15 8 31 8 47c0 96 -91 190 -159 257
c0 -118 90 -206 151 -304z" fill="currentColor"/>
</g>
<g transform="translate(52.5420, 3.3750)">
<path transform="scale(0.0040, -0.0040)" d="M0 -46c0 91 116 182 217 182c63 0 109 -35 109 -90c0 -87 -110 -182 -220 -182c-67 0 -106 39 -106 90z" fill="currentColor"/>
</g>
<g transform="translate(53.7812, 3.3750)">
<rect x="-0.0650" y="-3.3333" width="0.1300" height="3.1471" ry="0.0400" fill="currentColor"/>
</g>
<g transform="translate(57.4462, 3.3750)">
<path transform="scale(0.0040, -0.0040)" d="M0 -46c0 91 116 182 217 182c63 0 109 -35 109 -90c0 -87 -110 -182 -220 -182c-67 0 -106 39 -106 90z" fill="currentColor"/>
</g>
<g transform="translate(58.6854, 3.3750)">
<rect x="-0.0650" y="-3.3750" width="0.1300" height="3.1888" ry="0.0400" fill="currentColor"/>
</g>
<g transform="translate(58.7504, 0.0400)">
<path transform="scale(0.0040, -0.0040)" d="M123 -854c0 10 42 76 42 172c0 97 -94 190 -165 257v-125h-16v550h16c0 -177 201 -293 201 -470c0 -33 -9 -65 -23 -95c18 -37 29 -75 29 -117c0 -63 -15 -125 -41 -183c-5 -8 -13 -12 -20 -12c-12 0 -23 9 -23 23zM151 -517c5 15 8 31 8 47c0 96 -91 190 -159 257
c0 -118 90 -206 151 -304z" fill="currentColor"/>
</g>
</svg>
