<svg xmlns="http://www.w3.org/2000/svg" xmlns:xlink="http://www.w3.org/1999/xlink" version="1.2" width="210.00mm" height="297.00mm" viewBox="0.0000 -0.0000 119.5016 169.0094">
<style type="text/css">
<![CDATA[
tspan { white-space: pre; }
]]>
</style>
<g transform="translate(17.0717, 11.6906)">
<line stroke-linejoin="round" stroke-linecap="round" stroke-width="0.1000" stroke="currentColor" x1="0.0500" y1="0" x2="87.7367" y2="0"/>
</g>
<g transform="translate(104.6683, 11.6906)">
<rect x="0.0000" y="-1.0000" width="0.1900" height="2.0000" ry="0.0000" fill="currentColor"/>
</g>
<g transform="translate(80.2984, 11.6906)">
<rect x="0.0000" y="-1.0000" width="0.1900" height="2.0000" ry="0.0000" fill="currentColor"/>
</g>
<g transform="translate(61.0102, 11.6906)">
<rect x="0.0000" y="-1.0000" width="0.1900" height="2.0000" ry="0.0000" fill="currentColor"/>
</g>
<g transform="translate(36.5189, 11.6906)">
<rect x="0.0000" y="-1.0000" width="0.1900" height="2.0000" ry="0.0000" fill="currentColor"/>
</g>
<g transform="translate(21.5398, 11.6906)">
<path transform="scale(0.0040, -0.0040)" d="M0 -46c0 91 116 182 217 182c63 0 109 -35 109 -90c0 -87 -110 -182 -220 -182c-67 0 -106 39 -106 90z" fill="currentColor"/>
</g>
<g transform="translate(18.1399, 11.6906)">
<path transform="scale(0.0040, -0.0040)" d="M263 265c0 -33 70 -23 70 -125c0 -92 -79 -140 -179 -140c-79 0 -154 42 -154 113c0 36 30 66 66 66s65 -30 65 -66c0 -25 -40 -28 -40 -53c0 -27 32 -37 63 -37c49 0 63 61 63 117v16c0 54 -2 94 -50 94h-80c-10 0 -14 8 -14 15s4 14 14 14h80c49 0 50 43 50 99v8
c0 54 -18 91 -67 91c-28 0 -57 -9 -57 -33c0 -22 35 -25 35 -47c0 -32 -25 -58 -57 -58s-58 26 -58 58c0 64 67 103 137 103c91 0 169 -33 169 -114c0 -122 -56 -80 -56 -121z" fill="currentColor"/>
</g>
<g transform="translate(18.0717, 13.6906)">
<path transform="scale(0.0040, -0.0040)" d="M261 287c25 30 44 64 44 103c0 54 -55 87 -114 87c-46 0 -73 -36 -73 -71c0 -21 10 -42 31 -54zM292 269c54 -31 80 -79 80 -125c0 -73 -66 -144 -189 -144c-94 0 -183 54 -183 140c0 50 36 87 72 123c-37 28 -55 66 -55 103c0 68 60 134 174 134c80 0 157 -39 157 -110
c0 -46 -25 -86 -56 -121zM103 244c-31 -30 -59 -61 -59 -104c0 -69 66 -117 139 -117c54 0 86 42 86 83c0 24 -10 48 -35 62z" fill="currentColor"/>
</g>
<g transform="translate(22.7790, 11.6906)">
<rect x="-0.0650" y="-3.1900" width="0.1300" height="3.0038" ry="0.0400" fill="currentColor"/>
</g>
<g transform="translate(86.0173, 8.5006)">
<polygon stroke-linejoin="round" stroke-linecap="round" stroke-width="0.0800" fill="currentColor" stroke="currentColor" points="5.0984 -0.2000 5.0984 0.2000 0.0400 0.2000 0.0400 -0.2000"/>
</g>
<g transform="translate(86.0173, 9.3106)">
<polygon stroke-linejoin="round" stroke-linecap="round" stroke-width="0.0800" fill="currentColor" stroke="currentColor" points="5.0984 -0.2000 5.0984 0.2000 0.0400 0.2000 0.0400 -0.2000"/>
</g>
<g transform="translate(24.0440, 11.6906)">
<path transform="scale(0.0040, -0.0040)" d="M0 -46c0 91 116 182 217 182c63 0 109 -35 109 -90c0 -87 -110 -182 -220 -182c-67 0 -106 39 -106 90z" fill="currentColor"/>
</g>
<g transform="translate(25.2832, 11.6906)">
<rect x="-0.0650" y="-3.1900" width="0.1300" height="3.0038" ry="0.0400" fill="currentColor"/>
</g>
<g transform="translate(71.5600, 8.5006)">
<polygon stroke-linejoin="round" stroke-linecap="round" stroke-width="0.0800" fill="currentColor" stroke="currentColor" points="5.0984 -0.2000 5.0984 0.2000 0.0400 0.2000 0.0400 -0.2000"/>
</g>
<g transform="translate(71.5600, 9.3106)">
<polygon stroke-linejoin="round" stroke-linecap="round" stroke-width="0.0800" fill="currentColor" stroke="currentColor" points="5.0984 -0.2000 5.0984 0.2000 0.0400 0.2000 0.0400 -0.2000"/>
</g>
<g transform="translate(26.5482, 11.6906)">
<path transform="scale(0.0040, -0.0040)" d="M0 -46c0 91 116 182 217 182c63 0 109 -35 109 -90c0 -87 -110 -182 -220 -182c-67 0 -106 39 -106 90z" fill="currentColor"/>
</g>
<g transform="translate(27.7874, 11.6906)">
<rect x="-0.0650" y="-3.1900" width="0.1300" height="3.0038" ry="0.0400" fill="currentColor"/>
</g>
<g transform="translate(57.1179, 8.5006)">
<polygon stroke-linejoin="round" stroke-linecap="round" stroke-width="0.0800" fill="currentColor" stroke="currentColor" points="2.5942 -0.2000 2.5942 0.2000 0.0400 0.2000 0.0400 -0.2000"/>
</g>
<g transform="translate(57.1179, 9.3106)">
<polygon stroke-linejoin="round" stroke-linecap="round" stroke-width="0.0800" fill="currentColor" stroke="currentColor" points="2.5942 -0.2000 2.5942 0.2000 0.0400 0.2000 0.0400 -0.2000"/>
</g>
<g transform="translate(29.0524, 11.6906)">
<path transform="scale(0.0040, -0.0040)" d="M125 205c79 0 45 -98 90 -98c15 0 50 49 57 63c3 6 8 9 14 9s12 -3 14 -9l-179 -670c-8 -7 -17 -10 -27 -10s-20 3 -28 10l101 327c-34 -12 -70 -23 -106 -23c-58 0 -86 41 -86 80c0 36 24 71 71 71c79 0 46 -98 91 -98c16 0 55 51 60 68l46 151
c-34 -12 -68 -22 -104 -22c-58 0 -85 41 -85 80c0 36 24 71 71 71z" fill="currentColor"/>
</g>
<g transform="translate(47.2053, 8.5006)">
<polygon stroke-linejoin="round" stroke-linecap="round" stroke-width="0.0800" fill="currentColor" stroke="currentColor" points="5.0984 -0.2000 5.0984 0.2000 0.0400 0.2000 0.0400 -0.2000"/>
</g>
<g transform="translate(47.2053, 9.3106)">
<polygon stroke-linejoin="round" stroke-linecap="round" stroke-width="0.0800" fill="currentColor" stroke="currentColor" points="5.0984 -0.2000 5.0984 0.2000 0.0400 0.2000 0.0400 -0.2000"/>
</g>
<g transform="translate(31.4524, 11.6906)">
<path transform="scale(0.0040, -0.0040)" d="M0 -46c0 91 116 182 217 182c63 0 109 -35 109 -90c0 -87 -110 -182 -220 -182c-67 0 -106 39 -106 90z" fill="currentColor"/>
</g>
<g transform="translate(32.6916, 11.6906)">
<rect x="-0.0650" y="-3.1900" width="0.1300" height="3.0038" ry="0.0400" fill="currentColor"/>
</g>
<g transform="translate(32.6266, 8.5006)">
<polygon stroke-linejoin="round" stroke-linecap="round" stroke-width="0.0800" fill="currentColor" stroke="currentColor" points="2.5942 -0.2000 2.5942 0.2000 0.0400 0.2000 0.0400 -0.2000"/>
</g>
<g transform="translate(32.6266, 9.3106)">
<polygon stroke-linejoin="round" stroke-linecap="round" stroke-width="0.0800" fill="currentColor" stroke="currentColor" points="2.5942 -0.2000 2.5942 0.2000 0.0400 0.2000 0.0400 -0.2000"/>
</g>
<g transform="translate(33.9566, 11.6906)">
<path transform="scale(0.0040, -0.0040)" d="M0 -46c0 91 116 182 217 182c63 0 109 -35 109 -90c0 -87 -110 -182 -220 -182c-67 0 -106 39 -106 90z" fill="currentColor"/>
</g>
<g transform="translate(35.1958, 11.6906)">
<rect x="-0.0650" y="-3.1900" width="0.1300" height="3.0038" ry="0.0400" fill="currentColor"/>
</g>
<g transform="translate(22.7140, 8.5006)">
<polygon stroke-linejoin="round" stroke-linecap="round" stroke-width="0.0800" fill="currentColor" stroke="currentColor" points="5.0984 -0.2000 5.0984 0.2000 0.0400 0.2000 0.0400 -0.2000"/>
</g>
<g transform="translate(22.7140, 9.3106)">
<polygon stroke-linejoin="round" stroke-linecap="round" stroke-width="0.0800" fill="currentColor" stroke="currentColor" points="5.0984 -0.2000 5.0984 0.2000 0.0400 0.2000 0.0400 -0.2000"/>
</g>
<g transform="translate(41.0637, 11.6906)">
<path transform="scale(0.0040, -0.0040)" d="M0 -46c0 91 116 182 217 182c63 0 109 -35 109 -90c0 -87 -110 -182 -220 -182c-67 0 -106 39 -106 90z" fill="currentColor"/>
</g>
<g transform="translate(37.4589, 11.6906)">
<path transform="scale(0.0040, -0.0040)" d="M196 117h117c0 -48 27 -94 72 -94c8 0 12 -5 12 -11s-4 -12 -12 -12c-44 0 -87 13 -131 13s-87 -13 -131 -13c-8 0 -12 6 -12 12s4 11 12 11c45 0 73 46 73 94zM225 487c36 0 69 14 76 14c8 0 14 -6 14 -12c0 -2 -1 -3 -2 -5l-284 -330h167v131c0 34 34 27 68 72
c22 30 23 56 36 56c6 0 13 -5 13 -14v-245h72c10 0 15 -7 15 -14s-5 -15 -15 -15h-72v-8h-117v8h-167c-23 0 -31 14 -31 23c0 12 140 143 140 336c0 9 6 16 13 16c5 0 39 -13 74 -13z" fill="currentColor"/>
</g>
<g transform="translate(37.5272, 13.6906)">
<path transform="scale(0.0040, -0.0040)" d="M261 287c25 30 44 64 44 103c0 54 -55 87 -114 87c-46 0 -73 -36 -73 -71c0 -21 10 -42 31 -54zM292 269c54 -31 80 -79 80 -125c0 -73 -66 -144 -189 -144c-94 0 -183 54 -183 140c0 50 36 87 72 123c-37 28 -55 66 -55 103c0 68 60 134 174 134c80 0 157 -39 157 -110
c0 -46 -25 -86 -56 -121zM103 244c-31 -30 -59 -61 -59 -104c0 -69 66 -117 139 -117c54 0 86 42 86 83c0 24 -10 48 -35 62z" fill="currentColor"/>
</g>
<g transform="translate(42.3029, 11.6906)">
<rect x="-0.0650" y="-3.3750" width="0.1300" height="3.1888" ry="0.0400" fill="currentColor"/>
</g>
<g transform="translate(42.3679, 8.3556)">
<path transform="scale(0.0040, -0.0040)" d="M123 -854c0 10 42 76 42 172c0 97 -94 190 -165 257v-125h-16v550h16c0 -177 201 -293 201 -470c0 -33 -9 -65 -23 -95c18 -37 29 -75 29 -117c0 -63 -15 -125 -41 -183c-5 -8 -13 -12 -20 -12c-12 0 -23 9 -23 23zM151 -517c5 15 8 31 8 47c0 96 -91 190 -159 257
c0 -118 90 -206 151 -304z" fill="currentColor"/>
</g>
<g transform="translate(43.6311, 11.6906)">
<path transform="scale(0.0040, -0.0040)" d="M125 205c79 0 45 -98 90 -98c15 0 50 49 57 63c3 6 8 9 14 9s12 -3 14 -9l-179 -670c-8 -7 -17 -10 -27 -10s-20 3 -28 10l101 327c-34 -12 -70 -23 -106 -23c-58 0 -86 41 -86 80c0 36 24 71 71 71c79 0 46 -98 91 -98c16 0 55 51 60 68l46 151
c-34 -12 -68 -22 -104 -22c-58 0 -85 41 -85 80c0 36 24 71 71 71z" fill="currentColor"/>
</g>
<g transform="translate(46.0311, 11.6906)">
<path transform="scale(0.0040, -0.0040)" d="M0 -46c0 91 116 182 217 182c63 0 109 -35 109 -90c0 -87 -110 -182 -220 -182c-67 0 -106 39 -106 90z" fill="currentColor"/>
</g>
<g transform="translate(47.2703, 11.6906)">
<rect x="-0.0650" y="-3.1900" width="0.1300" height="3.0038" ry="0.0400" fill="currentColor"/>
</g>
<g transform="translate(48.5353, 11.6906)">
<path transform="scale(0.0040, -0.0040)" d="M0 -46c0 91 116 182 217 182c63 0 109 -35 109 -90c0 -87 -110 -182 -220 -182c-67 0 -106 39 -106 90z" fill="currentColor"/>
</g>
<g transform="translate(49.7745, 11.6906)">
<rect x="-0.0650" y="-3.1900" width="0.1300" height="3.0038" ry="0.0400" fill="currentColor"/>
</g>
<g transform="translate(51.0395, 11.6906)">
<path transform="scale(0.0040, -0.0040)" d="M0 -46c0 91 116 182 217 182c63 0 109 -35 109 -90c0 -87 -110 -182 -220 -182c-67 0 -106 39 -106 90z" fill="currentColor"/>
</g>
<g transform="translate(52.2787, 11.6906)">
<rect x="-0.0650" y="-3.1900" width="0.1300" height="3.0038" ry="0.0400" fill="currentColor"/>
</g>
<g transform="translate(53.5437, 11.6906)">
<path transform="scale(0.0040, -0.0040)" d="M125 205c79 0 45 -98 90 -98c15 0 50 49 57 63c3 6 8 9 14 9s12 -3 14 -9l-179 -670c-8 -7 -17 -10 -27 -10s-20 3 -28 10l101 327c-34 -12 -70 -23 -106 -23c-58 0 -86 41 -86 80c0 36 24 71 71 71c79 0 46 -98 91 -98c16 0 55 51 60 68l46 151
c-34 -12 -68 -22 -104 -22c-58 0 -85 41 -85 80c0 36 24 71 71 71z" fill="currentColor"/>
</g>
<g transform="translate(55.9437, 11.6906)">
<path transform="scale(0.0040, -0.0040)" d="M0 -46c0 91 116 182 217 182c63 0 109 -35 109 -90c0 -87 -110 -182 -220 -182c-67 0 -106 39 -106 90z" fill="currentColor"/>
</g>
<g transform="translate(57.1829, 11.6906)">
<rect x="-0.0650" y="-3.1900" width="0.1300" height="3.0038" ry="0.0400" fill="currentColor"/>
</g>
<g transform="translate(58.4479, 11.6906)">
<path transform="scale(0.0040, -0.0040)" d="M0 -46c0 91 116 182 217 182c63 0 109 -35 109 -90c0 -87 -110 -182 -220 -182c-67 0 -106 39 -106 90z" fill="currentColor"/>
</g>
<g transform="translate(59.6871, 11.6906)">
<rect x="-0.0650" y="-3.1900" width="0.1300" height="3.0038" ry="0.0400" fill="currentColor"/>
</g>
<g transform="translate(65.4184, 11.6906)">
<path transform="scale(0.0040, -0.0040)" d="M0 -46c0 91 116 182 217 182c63 0 109 -35 109 -90c0 -87 -110 -182 -220 -182c-67 0 -106 39 -106 90z" fill="currentColor"/>
</g>
<g transform="translate(62.0185, 11.6906)">
<path transform="scale(0.0040, -0.0040)" d="M263 265c0 -33 70 -23 70 -125c0 -92 -79 -140 -179 -140c-79 0 -154 42 -154 113c0 36 30 66 66 66s65 -30 65 -66c0 -25 -40 -28 -40 -53c0 -27 32 -37 63 -37c49 0 63 61 63 117v16c0 54 -2 94 -50 94h-80c-10 0 -14 8 -14 15s4 14 14 14h80c49 0 50 43 50 99v8
c0 54 -18 91 -67 91c-28 0 -57 -9 -57 -33c0 -22 35 -25 35 -47c0 -32 -25 -58 -57 -58s-58 26 -58 58c0 64 67 103 137 103c91 0 169 -33 169 -114c0 -122 -56 -80 -56 -121z" fill="currentColor"/>
</g>
<g transform="translate(61.9502, 13.6906)">
<path transform="scale(0.0040, -0.0040)" d="M261 287c25 30 44 64 44 103c0 54 -55 87 -114 87c-46 0 -73 -36 -73 -71c0 -21 10 -42 31 -54zM292 269c54 -31 80 -79 80 -125c0 -73 -66 -144 -189 -144c-94 0 -183 54 -183 140c0 50 36 87 72 123c-37 28 -55 66 -55 103c0 68 60 134 174 134c80 0 157 -39 157 -110
c0 -46 -25 -86 -56 -121zM103 244c-31 -30 -59 -61 -59 -104c0 -69 66 -117 139 -117c54 0 86 42 86 83c0 24 -10 48 -35 62z" fill="currentColor"/>
</g>
<g transform="translate(66.6576, 11.6906)">
<rect x="-0.0650" y="-3.3750" width="0.1300" height="3.1888" ry="0.0400" fill="currentColor"/>
</g>
<g transform="translate(66.7226, 8.3556)">
<path transform="scale(0.0040, -0.0040)" d="M123 -854c0 10 42 76 42 172c0 97 -94 190 -165 257v-125h-16v550h16c0 -177 201 -293 201 -470c0 -33 -9 -65 -23 -95c18 -37 29 -75 29 -117c0 -63 -15 -125 -41 -183c-5 -8 -13 -12 -20 -12c-12 0 -23 9 -23 23zM151 -517c5 15 8 31 8 47c0 96 -91 190 -159 257
c0 -118 90 -206 151 -304z" fill="currentColor"/>
</g>
<g transform="translate(95.9299, 8.5006)">
<polygon stroke-linejoin="round" stroke-linecap="round" stroke-width="0.0800" fill="currentColor" stroke="currentColor" points="5.0984 -0.2000 5.0984 0.2000 0.0400 0.2000 0.0400 -0.2000"/>
</g>
<g transform="translate(95.9299, 9.3106)">
<polygon stroke-linejoin="round" stroke-linecap="round" stroke-width="0.0800" fill="currentColor" stroke="currentColor" points="5.0984 -0.2000 5.0984 0.2000 0.0400 0.2000 0.0400 -0.2000"/>
</g>
<g transform="translate(102.2683, 11.6906)">
<path transform="scale(0.0040, -0.0040)" d="M125 205c79 0 45 -98 90 -98c15 0 50 49 57 63c3 6 8 9 14 9s12 -3 14 -9l-179 -670c-8 -7 -17 -10 -27 -10s-20 3 -28 10l101 327c-34 -12 -70 -23 -106 -23c-58 0 -86 41 -86 80c0 36 24 71 71 71c79 0 46 -98 91 -98c16 0 55 51 60 68l46 151
c-34 -12 -68 -22 -104 -22c-58 0 -85 41 -85 80c0 36 24 71 71 71z" fill="currentColor"/>
</g>
<g transform="translate(67.9858, 11.6906)">
<path transform="scale(0.0040, -0.0040)" d="M125 205c79 0 45 -98 90 -98c15 0 50 49 57 63c3 6 8 9 14 9s12 -3 14 -9l-179 -670c-8 -7 -17 -10 -27 -10s-20 3 -28 10l101 327c-34 -12 -70 -23 -106 -23c-58 0 -86 41 -86 80c0 36 24 71 71 71c79 0 46 -98 91 -98c16 0 55 51 60 68l46 151
c-34 -12 -68 -22 -104 -22c-58 0 -85 41 -85 80c0 36 24 71 71 71z" fill="currentColor"/>
</g>
<g transform="translate(70.3858, 11.6906)">
<path transform="scale(0.0040, -0.0040)" d="M0 -46c0 91 116 182 217 182c63 0 109 -35 109 -90c0 -87 -110 -182 -220 -182c-67 0 -106 39 -106 90z" fill="currentColor"/>
</g>
<g transform="translate(71.6250, 11.6906)">
<rect x="-0.0650" y="-3.1900" width="0.1300" height="3.0038" ry="0.0400" fill="currentColor"/>
</g>
<g transform="translate(72.8900, 11.6906)">
<path transform="scale(0.0040, -0.0040)" d="M0 -46c0 91 116 182 217 182c63 0 109 -35 109 -90c0 -87 -110 -182 -220 -182c-67 0 -106 39 -106 90z" fill="currentColor"/>
</g>
<g transform="translate(74.1292, 11.6906)">
<rect x="-0.0650" y="-3.1900" width="0.1300" height="3.0038" ry="0.0400" fill="currentColor"/>
</g>
<g transform="translate(75.3942, 11.6906)">
<path transform="scale(0.0040, -0.0040)" d="M0 -46c0 91 116 182 217 182c63 0 109 -35 109 -90c0 -87 -110 -182 -220 -182c-67 0 -106 39 -106 90z" fill="currentColor"/>
</g>
<g transform="translate(76.6334, 11.6906)">
<rect x="-0.0650" y="-3.1900" width="0.1300" height="3.0038" ry="0.0400" fill="currentColor"/>
</g>
<g transform="translate(77.8984, 11.6906)">
<path transform="scale(0.0040, -0.0040)" d="M125 205c79 0 45 -98 90 -98c15 0 50 49 57 63c3 6 8 9 14 9s12 -3 14 -9l-179 -670c-8 -7 -17 -10 -27 -10s-20 3 -28 10l101 327c-34 -12 -70 -23 -106 -23c-58 0 -86 41 -86 80c0 36 24 71 71 71c79 0 46 -98 91 -98c16 0 55 51 60 68l46 151
c-34 -12 -68 -22 -104 -22c-58 0 -85 41 -85 80c0 36 24 71 71 71z" fill="currentColor"/>
</g>
<g transform="translate(101.0033, 11.6906)">
<rect x="-0.0650" y="-3.1900" width="0.1300" height="3.0038" ry="0.0400" fill="currentColor"/>
</g>
<g transform="translate(99.7641, 11.6906)">
<path transform="scale(0.0040, -0.0040)" d="M0 -46c0 91 116 182 217 182c63 0 109 -35 109 -90c0 -87 -110 -182 -220 -182c-67 0 -106 39 -106 90z" fill="currentColor"/>
</g>
<g transform="translate(84.8431, 11.6906)">
<path transform="scale(0.0040, -0.0040)" d="M0 -46c0 91 116 182 217 182c63 0 109 -35 109 -90c0 -87 -110 -182 -220 -182c-67 0 -106 39 -106 90z" fill="currentColor"/>
</g>
<g transform="translate(81.2384, 11.6906)">
<path transform="scale(0.0040, -0.0040)" d="M196 117h117c0 -48 27 -94 72 -94c8 0 12 -5 12 -11s-4 -12 -12 -12c-44 0 -87 13 -131 13s-87 -13 -131 -13c-8 0 -12 6 -12 12s4 11 12 11c45 0 73 46 73 94zM225 487c36 0 69 14 76 14c8 0 14 -6 14 -12c0 -2 -1 -3 -2 -5l-284 -330h167v131c0 34 34 27 68 72
c22 30 23 56 36 56c6 0 13 -5 13 -14v-245h72c10 0 15 -7 15 -14s-5 -15 -15 -15h-72v-8h-117v8h-167c-23 0 -31 14 -31 23c0 12 140 143 140 336c0 9 6 16 13 16c5 0 39 -13 74 -13z" fill="currentColor"/>
</g>
<g transform="translate(81.3067, 13.6906)">
<path transform="scale(0.0040, -0.0040)" d="M261 287c25 30 44 64 44 103c0 54 -55 87 -114 87c-46 0 -73 -36 -73 -71c0 -21 10 -42 31 -54zM292 269c54 -31 80 -79 80 -125c0 -73 -66 -144 -189 -144c-94 0 -183 54 -183 140c0 50 36 87 72 123c-37 28 -55 66 -55 103c0 68 60 134 174 134c80 0 157 -39 157 -110
c0 -46 -25 -86 -56 -121zM103 244c-31 -30 -59 -61 -59 -104c0 -69 66 -117 139 -117c54 0 86 42 86 83c0 24 -10 48 -35 62z" fill="currentColor"/>
</g>
<g transform="translate(86.0823, 11.6906)">
<rect x="-0.0650" y="-3.1900" width="0.1300" height="3.0038" ry="0.0400" fill="currentColor"/>
</g>
<g transform="translate(87.3473, 11.6906)">
<path transform="scale(0.0040, -0.0040)" d="M0 -46c0 91 116 182 217 182c63 0 109 -35 109 -90c0 -87 -110 -182 -220 -182c-67 0 -106 39 -106 90z" fill="currentColor"/>
</g>
<g transform="translate(88.5865, 11.6906)">
<rect x="-0.0650" y="-3.1900" width="0.1300" height="3.0038" ry="0.0400" fill="currentColor"/>
</g>
<g transform="translate(89.8515, 11.6906)">
<path transform="scale(0.0040, -0.0040)" d="M0 -46c0 91 116 182 217 182c63 0 109 -35 109 -90c0 -87 -110 -182 -220 -182c-67 0 -106 39 -106 90z" fill="currentColor"/>
</g>
<g transform="translate(91.0907, 11.6906)">
<rect x="-0.0650" y="-3.1900" width="0.1300" height="3.0038" ry="0.0400" fill="currentColor"/>
</g>
<g transform="translate(92.3557, 11.6906)">
<path transform="scale(0.0040, -0.0040)" d="M125 205c79 0 45 -98 90 -98c15 0 50 49 57 63c3 6 8 9 14 9s12 -3 14 -9l-179 -670c-8 -7 -17 -10 -27 -10s-20 3 -28 10l101 327c-34 -12 -70 -23 -106 -23c-58 0 -86 41 -86 80c0 36 24 71 71 71c79 0 46 -98 91 -98c16 0 55 51 60 68l46 151
c-34 -12 -68 -22 -104 -22c-58 0 -85 41 -85 80c0 36 24 71 71 71z" fill="currentColor"/>
</g>
<g transform="translate(94.7557, 11.6906)">
<path transform="scale(0.0040, -0.0040)" d="M0 -46c0 91 116 182 217 182c63 0 109 -35 109 -90c0 -87 -110 -182 -220 -182c-67 0 -106 39 -106 90z" fill="currentColor"/>
</g>
<g transform="translate(95.9949, 11.6906)">
<rect x="-0.0650" y="-3.1900" width="0.1300" height="3.0038" ry="0.0400" fill="currentColor"/>
</g>
<g transform="translate(98.4991, 11.6906)">
<rect x="-0.0650" y="-3.1900" width="0.1300" height="3.0038" ry="0.0400" fill="currentColor"/>
</g>
<g transform="translate(97.2599, 11.6906)">
<path transform="scale(0.0040, -0.0040)" d="M0 -46c0 91 116 182 217 182c63 0 109 -35 109 -90c0 -87 -110 -182 -220 -182c-67 0 -106 39 -106 90z" fill="currentColor"/>
</g>
<g transform="translate(51.5735, 162.8440)">
<a xlink:href="https://lilypond.org">
<rect x="0.0000" y="-0.4748" width="16.3546" height="2.0024" fill="none" stroke="none" stroke-width="0.0"/>
</a>
</g>
<g transform="translate(51.5735, 162.8440)">
<text font-family="serif" font-size="2.2000" text-anchor="start" fill="currentColor">
<tspan>LilyPond v2.25.26</tspan>
</text>
</g>
</svg>
