<svg xmlns="http://www.w3.org/2000/svg" xmlns:xlink="http://www.w3.org/1999/xlink" version="1.2" width="68.72mm" height="9.49mm" viewBox="8.5358 -0.0250 39.1055 5.4000">
<style type="text/css">
<![CDATA[
tspan { white-space: pre; }
]]>
</style>
<g transform="translate(8.5358, 3.3750)">
<line stroke-linejoin="round" stroke-linecap="round" stroke-width="0.1000" stroke="currentColor" x1="0.0500" y1="0" x2="39.0555" y2="0"/>
</g>
<g transform="translate(47.4513, 3.3750)">
<rect x="0.0000" y="-1.0000" width="0.1900" height="2.0000" ry="0.0000" fill="currentColor"/>
</g>
<g transform="translate(38.8316, 3.3750)">
<rect x="0.0000" y="-1.0000" width="0.1900" height="2.0000" ry="0.0000" fill="currentColor"/>
</g>
<g transform="translate(30.2119, 3.3750)">
<rect x="0.0000" y="-1.0000" width="0.1900" height="2.0000" ry="0.0000" fill="currentColor"/>
</g>
<g transform="translate(21.5922, 3.3750)">
<rect x="0.0000" y="-1.0000" width="0.1900" height="2.0000" ry="0.0000" fill="currentColor"/>
</g>
<g transform="translate(32.5411, 3.3750)">
<rect x="-0.0650" y="-3.3750" width="0.1300" height="3.1888" ry="0.0400" fill="currentColor"/>
</g>
<g transform="translate(14.0624, 3.3750)">
<path transform="scale(0.0040, -0.0040)" d="M0 -46c0 91 116 182 217 182c63 0 109 -35 109 -90c0 -87 -110 -182 -220 -182c-67 0 -106 39 -106 90z" fill="currentColor"/>
</g>
<g transform="translate(10.1333, 3.3750)">
<path transform="scale(0.0040, -0.0040)" d="M46 500c1 0 70 -13 137 -13c66 0 138 13 139 13c9 0 15 -5 15 -11c0 -3 -75 -98 -260 -98c-9 0 -16 -8 -16 -17v-96c28 28 64 43 103 43c115 0 185 -51 185 -161c0 -94 -87 -160 -186 -160c-82 0 -163 39 -163 113c0 36 30 66 66 66s65 -30 65 -66c0 -25 -40 -28 -40 -53
c0 -30 37 -37 72 -37c57 0 70 71 70 137c0 63 -15 132 -69 132c-92 0 -101 -51 -118 -51c-8 0 -15 6 -15 15v228c0 9 7 16 15 16z" fill="currentColor"/>
</g>
<g transform="translate(9.5358, 5.3750)">
<g>
<path transform="scale(0.0040, -0.0040)" d="M175 487c21 0 40 14 46 14c7 0 12 -7 12 -17v-367c0 -48 28 -94 73 -94c8 0 12 -5 12 -11s-4 -12 -12 -12c-44 0 -87 13 -131 13s-87 -13 -131 -13c-8 0 -12 6 -12 12s4 11 12 11c45 0 73 46 73 94v245c0 12 -9 19 -17 19c-4 0 -8 -3 -10 -7l-64 -136c-3 -6 -7 -9 -12 -9
c-8 0 -16 6 -16 14c0 2 1 5 2 7l117 250c1 2 3 3 5 3c10 0 31 -16 53 -16z" fill="currentColor"/>

<path transform="translate(1.1609, 0.0000) scale(0.0040, -0.0040)" d="M170 259c-51 0 -53 -43 -53 -100v-18v-18c0 -57 2 -100 53 -100c57 0 61 51 61 118s-4 118 -61 118zM117 266c15 10 33 16 53 16c101 0 170 -46 170 -141s-69 -141 -170 -141c-112 0 -170 124 -170 250c0 128 72 250 190 250c70 0 136 -39 136 -103
c0 -36 -29 -66 -65 -66s-66 30 -66 66c0 24 40 25 40 49c0 20 -23 31 -45 31c-66 0 -75 -65 -75 -139c0 -24 2 -48 2 -72z" fill="currentColor"/>
</g>
</g>
<g transform="translate(15.3016, 3.3750)">
<rect x="-0.0650" y="-3.3750" width="0.1300" height="3.1888" ry="0.0400" fill="currentColor"/>
</g>
<g transform="translate(15.3666, 0.0400)">
<path transform="scale(0.0040, -0.0040)" d="M123 -854c0 10 42 76 42 172c0 97 -94 190 -165 257v-125h-16v550h16c0 -177 201 -293 201 -470c0 -33 -9 -65 -23 -95c18 -37 29 -75 29 -117c0 -63 -15 -125 -41 -183c-5 -8 -13 -12 -20 -12c-12 0 -23 9 -23 23zM151 -517c5 15 8 31 8 47c0 96 -91 190 -159 257
c0 -118 90 -206 151 -304z" fill="currentColor"/>
</g>
<g transform="translate(16.6298, 3.3750)">
<path transform="scale(0.0040, -0.0040)" d="M0 -46c0 91 116 182 217 182c63 0 109 -35 109 -90c0 -87 -110 -182 -220 -182c-67 0 -106 39 -106 90z" fill="currentColor"/>
</g>
<g transform="translate(17.8690, 3.3750)">
<rect x="-0.0650" y="-3.3333" width="0.1300" height="3.1471" ry="0.0400" fill="currentColor"/>
</g>
<g transform="translate(22.6822, 3.3750)">
<path transform="scale(0.0040, -0.0040)" d="M0 -46c0 91 116 182 217 182c63 0 109 -35 109 -90c0 -87 -110 -182 -220 -182c-67 0 -106 39 -106 90z" fill="currentColor"/>
</g>
<g transform="translate(23.9214, 3.3750)">
<rect x="-0.0650" y="-3.3750" width="0.1300" height="3.1888" ry="0.0400" fill="currentColor"/>
</g>
<g transform="translate(23.9864, 0.0400)">
<path transform="scale(0.0040, -0.0040)" d="M123 -854c0 10 42 76 42 172c0 97 -94 190 -165 257v-125h-16v550h16c0 -177 201 -293 201 -470c0 -33 -9 -65 -23 -95c18 -37 29 -75 29 -117c0 -63 -15 -125 -41 -183c-5 -8 -13 -12 -20 -12c-12 0 -23 9 -23 23zM151 -517c5 15 8 31 8 47c0 96 -91 190 -159 257
c0 -118 90 -206 151 -304z" fill="currentColor"/>
</g>
<g transform="translate(25.2496, 3.3750)">
<path transform="scale(0.0040, -0.0040)" d="M0 -46c0 91 116 182 217 182c63 0 109 -35 109 -90c0 -87 -110 -182 -220 -182c-67 0 -106 39 -106 90z" fill="currentColor"/>
</g>
<g transform="translate(26.4888, 3.3750)">
<rect x="-0.0650" y="-3.3333" width="0.1300" height="3.1471" ry="0.0400" fill="currentColor"/>
</g>
<g transform="translate(31.3019, 3.3750)">
<path transform="scale(0.0040, -0.0040)" d="M0 -46c0 91 116 182 217 182c63 0 109 -35 109 -90c0 -87 -110 -182 -220 -182c-67 0 -106 39 -106 90z" fill="currentColor"/>
</g>
<g transform="translate(32.6061, 0.0400)">
<path transform="scale(0.0040, -0.0040)" d="M123 -854c0 10 42 76 42 172c0 97 -94 190 -165 257v-125h-16v550h16c0 -177 201 -293 201 -470c0 -33 -9 -65 -23 -95c18 -37 29 -75 29 -117c0 -63 -15 -125 -41 -183c-5 -8 -13 -12 -20 -12c-12 0 -23 9 -23 23zM151 -517c5 15 8 31 8 47c0 96 -91 190 -159 257
c0 -118 90 -206 151 -304z" fill="currentColor"/>
</g>
<g transform="translate(33.8693, 3.3750)">
<path transform="scale(0.0040, -0.0040)" d="M0 -46c0 91 116 182 217 182c63 0 109 -35 109 -90c0 -87 -110 -182 -220 -182c-67 0 -106 39 -106 90z" fill="currentColor"/>
</g>
<g transform="translate(35.1085, 3.3750)">
<rect x="-0.0650" y="-3.3333" width="0.1300" height="3.1471" ry="0.0400" fill="currentColor"/>
</g>
<g transform="translate(43.7282, 3.3750)">
<rect x="-0.0650" y="-3.3333" width="0.1300" height="3.1471" ry="0.0400" fill="currentColor"/>
</g>
<g transform="translate(39.9216, 3.3750)">
<path transform="scale(0.0040, -0.0040)" d="M0 -46c0 91 116 182 217 182c63 0 109 -35 109 -90c0 -87 -110 -182 -220 -182c-67 0 -106 39 -106 90z" fill="currentColor"/>
</g>
<g transform="translate(41.1608, 3.3750)">
<rect x="-0.0650" y="-3.3750" width="0.1300" height="3.1888" ry="0.0400" fill="currentColor"/>
</g>
<g transform="translate(41.2258, 0.0400)">
<path transform="scale(0.0040, -0.0040)" d="M123 -854c0 10 42 76 42 172c0 97 -94 190 -165 257v-125h-16v550h16c0 -177 201 -293 201 -470c0 -33 -9 -65 -23 -95c18 -37 29 -75 29 -117c0 -63 -15 -125 -41 -183c-5 -8 -13 -12 -20 -12c-12 0 -23 9 -23 23zM151 -517c5 15 8 31 8 47c0 96 -91 190 -159 257
c0 -118 90 -206 151 -304z" fill="currentColor"/>
</g>
<g transform="translate(42.4890, 3.3750)">
<path transform="scale(0.0040, -0.0040)" d="M0 -46c0 91 116 182 217 182c63 0 109 -35 109 -90c0 -87 -110 -182 -220 -182c-67 0 -106 39 -106 90z" fill="currentColor"/>
</g>
</svg>
