<svg xmlns="http://www.w3.org/2000/svg" xmlns:xlink="http://www.w3.org/1999/xlink" version="1.2" width="111.15mm" height="12.20mm" viewBox="8.5358 -0.0000 63.2525 6.9402">
<style type="text/css">
<![CDATA[
tspan { white-space: pre; }
]]>
</style>
<g transform="translate(8.5358, 4.9402)">
<line stroke-linejoin="round" stroke-linecap="round" stroke-width="0.1000" stroke="currentColor" x1="0.0500" y1="0" x2="63.2025" y2="0"/>
</g>
<g transform="translate(71.5984, 4.9402)">
<rect x="0.0000" y="-1.0000" width="0.1900" height="2.0000" ry="0.0000" fill="currentColor"/>
</g>
<g transform="translate(61.5576, 4.9402)">
<rect x="0.0000" y="-1.0000" width="0.1900" height="2.0000" ry="0.0000" fill="currentColor"/>
</g>
<g transform="translate(52.0169, 4.9402)">
<rect x="0.0000" y="-1.0000" width="0.1900" height="2.0000" ry="0.0000" fill="currentColor"/>
</g>
<g transform="translate(41.5362, 4.9402)">
<rect x="0.0000" y="-1.0000" width="0.1900" height="2.0000" ry="0.0000" fill="currentColor"/>
</g>
<g transform="translate(31.4954, 4.9402)">
<rect x="0.0000" y="-1.0000" width="0.1900" height="2.0000" ry="0.0000" fill="currentColor"/>
</g>
<g transform="translate(21.4547, 4.9402)">
<rect x="0.0000" y="-1.0000" width="0.1900" height="2.0000" ry="0.0000" fill="currentColor"/>
</g>
<g transform="translate(13.0040, 4.9402)">
<path transform="scale(0.0040, -0.0040)" d="M0 -46c0 91 116 182 217 182c63 0 109 -35 109 -90c0 -87 -110 -182 -220 -182c-67 0 -106 39 -106 90z" fill="currentColor"/>
</g>
<g transform="translate(9.5358, 4.9402)">
<path transform="scale(0.0040, -0.0040)" d="M229 0c-88 0 -90 66 -144 66c-30 0 -59 -20 -62 -55c-1 -7 -6 -11 -11 -11c-6 0 -12 4 -12 11v2c15 172 232 165 232 342c0 59 -16 122 -67 122c-25 0 -49 -14 -49 -37c0 -27 35 -41 35 -68c0 -38 -31 -69 -69 -69s-69 31 -69 69c0 76 72 128 152 128
c95 0 183 -57 183 -145c0 -151 -150 -159 -246 -220c9 2 18 3 27 3c83 0 111 -59 171 -59c48 0 38 38 55 38c6 0 12 -5 12 -12c0 -22 -44 -105 -138 -105z" fill="currentColor"/>
</g>
<g transform="translate(9.5358, 6.9402)">
<path transform="scale(0.0040, -0.0040)" d="M261 287c25 30 44 64 44 103c0 54 -55 87 -114 87c-46 0 -73 -36 -73 -71c0 -21 10 -42 31 -54zM292 269c54 -31 80 -79 80 -125c0 -73 -66 -144 -189 -144c-94 0 -183 54 -183 140c0 50 36 87 72 123c-37 28 -55 66 -55 103c0 68 60 134 174 134c80 0 157 -39 157 -110
c0 -46 -25 -86 -56 -121zM103 244c-31 -30 -59 -61 -59 -104c0 -69 66 -117 139 -117c54 0 86 42 86 83c0 24 -10 48 -35 62z" fill="currentColor"/>
</g>
<g transform="translate(14.2432, 4.9402)">
<rect x="-0.0650" y="-3.0000" width="0.1300" height="2.8138" ry="0.0400" fill="currentColor"/>
</g>
<g transform="translate(67.1072, 1.1799)">
<text font-family="serif" font-style="italic" font-size="1.7459" text-anchor="start" fill="currentColor">
<tspan>3</tspan>
</text>
</g>
<g transform="translate(15.9482, 4.9402)">
<path transform="scale(0.0040, -0.0040)" d="M0 -46c0 91 116 182 217 182c63 0 109 -35 109 -90c0 -87 -110 -182 -220 -182c-67 0 -106 39 -106 90z" fill="currentColor"/>
</g>
<g transform="translate(15.9482, 4.9402)">
<path stroke-width="0.0800" stroke-linejoin="round" stroke-linecap="round" stroke="currentColor" fill="currentColor" d="M-1.3000 0.5000C-0.9986 0.8924 -0.5014 0.8924 -0.2000 0.5000L-0.2000 0.5000C-0.5014 0.7724 -0.9986 0.7724 -1.3000 0.5000z"/>
</g>
<g transform="translate(17.1874, 4.9402)">
<rect x="-0.0650" y="-3.0000" width="0.1300" height="2.8138" ry="0.0400" fill="currentColor"/>
</g>
<g transform="translate(18.8924, 4.9402)">
<path transform="scale(0.0040, -0.0040)" d="M0 -46c0 91 116 182 217 182c63 0 109 -35 109 -90c0 -87 -110 -182 -220 -182c-67 0 -106 39 -106 90z" fill="currentColor"/>
</g>
<g transform="translate(18.8924, 4.9402)">
<path stroke-width="0.0800" stroke-linejoin="round" stroke-linecap="round" stroke="currentColor" fill="currentColor" d="M-1.3000 0.5000C-0.9986 0.8924 -0.5014 0.8924 -0.2000 0.5000L-0.2000 0.5000C-0.5014 0.7724 -0.9986 0.7724 -1.3000 0.5000z"/>
</g>
<g transform="translate(20.1316, 4.9402)">
<rect x="-0.0650" y="-3.0000" width="0.1300" height="2.8138" ry="0.0400" fill="currentColor"/>
</g>
<g transform="translate(64.7618, 1.9402)">
<polygon stroke-linejoin="round" stroke-linecap="round" stroke-width="0.0800" fill="currentColor" stroke="currentColor" points="5.5384 -0.2000 5.5384 0.2000 0.0400 0.2000 0.0400 -0.2000"/>
</g>
<g transform="translate(56.8464, 1.1799)">
<text font-family="serif" font-style="italic" font-size="1.7459" text-anchor="start" fill="currentColor">
<tspan>3</tspan>
</text>
</g>
<g transform="translate(23.4847, 4.9402)">
<path transform="scale(0.0040, -0.0040)" d="M0 -46c0 91 116 182 217 182c63 0 109 -35 109 -90c0 -87 -110 -182 -220 -182c-67 0 -106 39 -106 90z" fill="currentColor"/>
</g>
<g transform="translate(23.4847, 4.9402)">
<path stroke-width="0.0800" stroke-linejoin="round" stroke-linecap="round" stroke="currentColor" fill="currentColor" d="M-1.3000 0.5000C-0.9986 0.8924 -0.5014 0.8924 -0.2000 0.5000L-0.2000 0.5000C-0.5014 0.7724 -0.9986 0.7724 -1.3000 0.5000z"/>
</g>
<g transform="translate(24.7239, 4.9402)">
<rect x="-0.0650" y="-3.0000" width="0.1300" height="2.8138" ry="0.0400" fill="currentColor"/>
</g>
<g transform="translate(54.2811, 1.9402)">
<polygon stroke-linejoin="round" stroke-linecap="round" stroke-width="0.0800" fill="currentColor" stroke="currentColor" points="5.9784 -0.2000 5.9784 0.2000 0.0400 0.2000 0.0400 -0.2000"/>
</g>
<g transform="translate(25.9889, 4.9402)">
<path transform="scale(0.0040, -0.0040)" d="M0 -46c0 91 116 182 217 182c63 0 109 -35 109 -90c0 -87 -110 -182 -220 -182c-67 0 -106 39 -106 90z" fill="currentColor"/>
</g>
<g transform="translate(27.2281, 4.9402)">
<rect x="-0.0650" y="-3.0000" width="0.1300" height="2.8138" ry="0.0400" fill="currentColor"/>
</g>
<g transform="translate(47.3057, 1.1799)">
<text font-family="serif" font-style="italic" font-size="1.7459" text-anchor="start" fill="currentColor">
<tspan>3</tspan>
</text>
</g>
<g transform="translate(28.9331, 4.9402)">
<path transform="scale(0.0040, -0.0040)" d="M0 -46c0 91 116 182 217 182c63 0 109 -35 109 -90c0 -87 -110 -182 -220 -182c-67 0 -106 39 -106 90z" fill="currentColor"/>
</g>
<g transform="translate(28.9331, 4.9402)">
<path stroke-width="0.0800" stroke-linejoin="round" stroke-linecap="round" stroke="currentColor" fill="currentColor" d="M-1.3000 0.5000C-0.9986 0.8924 -0.5014 0.8924 -0.2000 0.5000L-0.2000 0.5000C-0.5014 0.7724 -0.9986 0.7724 -1.3000 0.5000z"/>
</g>
<g transform="translate(30.1723, 4.9402)">
<rect x="-0.0650" y="-3.0000" width="0.1300" height="2.8138" ry="0.0400" fill="currentColor"/>
</g>
<g transform="translate(44.7404, 1.9402)">
<polygon stroke-linejoin="round" stroke-linecap="round" stroke-width="0.0800" fill="currentColor" stroke="currentColor" points="5.9784 -0.2000 5.9784 0.2000 0.0400 0.2000 0.0400 -0.2000"/>
</g>
<g transform="translate(33.5254, 4.9402)">
<path transform="scale(0.0040, -0.0040)" d="M0 -46c0 91 116 182 217 182c63 0 109 -35 109 -90c0 -87 -110 -182 -220 -182c-67 0 -106 39 -106 90z" fill="currentColor"/>
</g>
<g transform="translate(37.0450, 1.1799)">
<text font-family="serif" font-style="italic" font-size="1.7459" text-anchor="start" fill="currentColor">
<tspan>3</tspan>
</text>
</g>
<g transform="translate(33.5254, 4.9402)">
<path stroke-width="0.0800" stroke-linejoin="round" stroke-linecap="round" stroke="currentColor" fill="currentColor" d="M-1.3000 0.5000C-0.9986 0.8924 -0.5014 0.8924 -0.2000 0.5000L-0.2000 0.5000C-0.5014 0.7724 -0.9986 0.7724 -1.3000 0.5000z"/>
</g>
<g transform="translate(34.7646, 4.9402)">
<rect x="-0.0650" y="-3.0000" width="0.1300" height="2.8138" ry="0.0400" fill="currentColor"/>
</g>
<g transform="translate(36.4696, 4.9402)">
<path transform="scale(0.0040, -0.0040)" d="M0 -46c0 91 116 182 217 182c63 0 109 -35 109 -90c0 -87 -110 -182 -220 -182c-67 0 -106 39 -106 90z" fill="currentColor"/>
</g>
<g transform="translate(36.4696, 4.9402)">
<path stroke-width="0.0800" stroke-linejoin="round" stroke-linecap="round" stroke="currentColor" fill="currentColor" d="M-1.3000 0.5000C-0.9986 0.8924 -0.5014 0.8924 -0.2000 0.5000L-0.2000 0.5000C-0.5014 0.7724 -0.9986 0.7724 -1.3000 0.5000z"/>
</g>
<g transform="translate(37.7088, 4.9402)">
<rect x="-0.0650" y="-3.0000" width="0.1300" height="2.8138" ry="0.0400" fill="currentColor"/>
</g>
<g transform="translate(34.6996, 1.9402)">
<polygon stroke-linejoin="round" stroke-linecap="round" stroke-width="0.0800" fill="currentColor" stroke="currentColor" points="5.5384 -0.2000 5.5384 0.2000 0.0400 0.2000 0.0400 -0.2000"/>
</g>
<g transform="translate(38.9738, 4.9402)">
<path transform="scale(0.0040, -0.0040)" d="M0 -46c0 91 116 182 217 182c63 0 109 -35 109 -90c0 -87 -110 -182 -220 -182c-67 0 -106 39 -106 90z" fill="currentColor"/>
</g>
<g transform="translate(40.2130, 4.9402)">
<rect x="-0.0650" y="-3.0000" width="0.1300" height="2.8138" ry="0.0400" fill="currentColor"/>
</g>
<g transform="translate(27.0043, 1.1799)">
<text font-family="serif" font-style="italic" font-size="1.7459" text-anchor="start" fill="currentColor">
<tspan>3</tspan>
</text>
</g>
<g transform="translate(43.5662, 4.9402)">
<path transform="scale(0.0040, -0.0040)" d="M0 -46c0 91 116 182 217 182c63 0 109 -35 109 -90c0 -87 -110 -182 -220 -182c-67 0 -106 39 -106 90z" fill="currentColor"/>
</g>
<g transform="translate(43.5662, 4.9402)">
<path stroke-width="0.0800" stroke-linejoin="round" stroke-linecap="round" stroke="currentColor" fill="currentColor" d="M-1.3000 0.5000C-0.9986 0.8924 -0.5014 0.8924 -0.2000 0.5000L-0.2000 0.5000C-0.5014 0.7724 -0.9986 0.7724 -1.3000 0.5000z"/>
</g>
<g transform="translate(44.8054, 4.9402)">
<rect x="-0.0650" y="-3.0000" width="0.1300" height="2.8138" ry="0.0400" fill="currentColor"/>
</g>
<g transform="translate(24.6589, 1.9402)">
<polygon stroke-linejoin="round" stroke-linecap="round" stroke-width="0.0800" fill="currentColor" stroke="currentColor" points="5.5384 -0.2000 5.5384 0.2000 0.0400 0.2000 0.0400 -0.2000"/>
</g>
<g transform="translate(46.5104, 4.9402)">
<path transform="scale(0.0040, -0.0040)" d="M0 -46c0 91 116 182 217 182c63 0 109 -35 109 -90c0 -87 -110 -182 -220 -182c-67 0 -106 39 -106 90z" fill="currentColor"/>
</g>
<g transform="translate(46.5104, 4.9402)">
<path stroke-width="0.0800" stroke-linejoin="round" stroke-linecap="round" stroke="currentColor" fill="currentColor" d="M-1.3000 0.5000C-0.9986 0.8924 -0.5014 0.8924 -0.2000 0.5000L-0.2000 0.5000C-0.5014 0.7724 -0.9986 0.7724 -1.3000 0.5000z"/>
</g>
<g transform="translate(47.7496, 4.9402)">
<rect x="-0.0650" y="-3.0000" width="0.1300" height="2.8138" ry="0.0400" fill="currentColor"/>
</g>
<g transform="translate(16.7435, 1.1799)">
<text font-family="serif" font-style="italic" font-size="1.7459" text-anchor="start" fill="currentColor">
<tspan>3</tspan>
</text>
</g>
<g transform="translate(49.4546, 4.9402)">
<path transform="scale(0.0040, -0.0040)" d="M0 -46c0 91 116 182 217 182c63 0 109 -35 109 -90c0 -87 -110 -182 -220 -182c-67 0 -106 39 -106 90z" fill="currentColor"/>
</g>
<g transform="translate(49.4546, 4.9402)">
<path stroke-width="0.0800" stroke-linejoin="round" stroke-linecap="round" stroke="currentColor" fill="currentColor" d="M-1.3000 0.5000C-0.9986 0.8924 -0.5014 0.8924 -0.2000 0.5000L-0.2000 0.5000C-0.5014 0.7724 -0.9986 0.7724 -1.3000 0.5000z"/>
</g>
<g transform="translate(50.6938, 4.9402)">
<rect x="-0.0650" y="-3.0000" width="0.1300" height="2.8138" ry="0.0400" fill="currentColor"/>
</g>
<g transform="translate(14.1782, 1.9402)">
<polygon stroke-linejoin="round" stroke-linecap="round" stroke-width="0.0800" fill="currentColor" stroke="currentColor" points="5.9784 -0.2000 5.9784 0.2000 0.0400 0.2000 0.0400 -0.2000"/>
</g>
<g transform="translate(53.1069, 4.9402)">
<path transform="scale(0.0040, -0.0040)" d="M0 -46c0 91 116 182 217 182c63 0 109 -35 109 -90c0 -87 -110 -182 -220 -182c-67 0 -106 39 -106 90z" fill="currentColor"/>
</g>
<g transform="translate(54.3461, 4.9402)">
<rect x="-0.0650" y="-3.0000" width="0.1300" height="2.8138" ry="0.0400" fill="currentColor"/>
</g>
<g transform="translate(56.0511, 4.9402)">
<path transform="scale(0.0040, -0.0040)" d="M0 -46c0 91 116 182 217 182c63 0 109 -35 109 -90c0 -87 -110 -182 -220 -182c-67 0 -106 39 -106 90z" fill="currentColor"/>
</g>
<g transform="translate(56.0511, 4.9402)">
<path stroke-width="0.0800" stroke-linejoin="round" stroke-linecap="round" stroke="currentColor" fill="currentColor" d="M-1.3000 0.5000C-0.9986 0.8924 -0.5014 0.8924 -0.2000 0.5000L-0.2000 0.5000C-0.5014 0.7724 -0.9986 0.7724 -1.3000 0.5000z"/>
</g>
<g transform="translate(57.2903, 4.9402)">
<rect x="-0.0650" y="-3.0000" width="0.1300" height="2.8138" ry="0.0400" fill="currentColor"/>
</g>
<g transform="translate(58.9953, 4.9402)">
<path transform="scale(0.0040, -0.0040)" d="M0 -46c0 91 116 182 217 182c63 0 109 -35 109 -90c0 -87 -110 -182 -220 -182c-67 0 -106 39 -106 90z" fill="currentColor"/>
</g>
<g transform="translate(58.9953, 4.9402)">
<path stroke-width="0.0800" stroke-linejoin="round" stroke-linecap="round" stroke="currentColor" fill="currentColor" d="M-1.3000 0.5000C-0.9986 0.8924 -0.5014 0.8924 -0.2000 0.5000L-0.2000 0.5000C-0.5014 0.7724 -0.9986 0.7724 -1.3000 0.5000z"/>
</g>
<g transform="translate(60.2345, 4.9402)">
<rect x="-0.0650" y="-3.0000" width="0.1300" height="2.8138" ry="0.0400" fill="currentColor"/>
</g>
<g transform="translate(63.5876, 4.9402)">
<path transform="scale(0.0040, -0.0040)" d="M0 -46c0 91 116 182 217 182c63 0 109 -35 109 -90c0 -87 -110 -182 -220 -182c-67 0 -106 39 -106 90z" fill="currentColor"/>
</g>
<g transform="translate(63.5876, 4.9402)">
<path stroke-width="0.0800" stroke-linejoin="round" stroke-linecap="round" stroke="currentColor" fill="currentColor" d="M-1.3000 0.5000C-0.9986 0.8924 -0.5014 0.8924 -0.2000 0.5000L-0.2000 0.5000C-0.5014 0.7724 -0.9986 0.7724 -1.3000 0.5000z"/>
</g>
<g transform="translate(64.8268, 4.9402)">
<rect x="-0.0650" y="-3.0000" width="0.1300" height="2.8138" ry="0.0400" fill="currentColor"/>
</g>
<g transform="translate(66.0918, 4.9402)">
<path transform="scale(0.0040, -0.0040)" d="M0 -46c0 91 116 182 217 182c63 0 109 -35 109 -90c0 -87 -110 -182 -220 -182c-67 0 -106 39 -106 90z" fill="currentColor"/>
</g>
<g transform="translate(67.3310, 4.9402)">
<rect x="-0.0650" y="-3.0000" width="0.1300" height="2.8138" ry="0.0400" fill="currentColor"/>
</g>
<g transform="translate(69.0360, 4.9402)">
<path transform="scale(0.0040, -0.0040)" d="M0 -46c0 91 116 182 217 182c63 0 109 -35 109 -90c0 -87 -110 -182 -220 -182c-67 0 -106 39 -106 90z" fill="currentColor"/>
</g>
<g transform="translate(69.0360, 4.9402)">
<path stroke-width="0.0800" stroke-linejoin="round" stroke-linecap="round" stroke="currentColor" fill="currentColor" d="M-1.3000 0.5000C-0.9986 0.8924 -0.5014 0.8924 -0.2000 0.5000L-0.2000 0.5000C-0.5014 0.7724 -0.9986 0.7724 -1.3000 0.5000z"/>
</g>
<g transform="translate(70.2752, 4.9402)">
<rect x="-0.0650" y="-3.0000" width="0.1300" height="2.8138" ry="0.0400" fill="currentColor"/>
</g>
</svg>
