<svg xmlns="http://www.w3.org/2000/svg" xmlns:xlink="http://www.w3.org/1999/xlink" version="1.2" width="42.81mm" height="12.48mm" viewBox="8.5358 -0.0000 24.3631 7.1042">
<style type="text/css">
<![CDATA[
tspan { white-space: pre; }
]]>
</style>
<g transform="translate(8.5358, 5.1002)">
<line stroke-linejoin="round" stroke-linecap="round" stroke-width="0.1000" stroke="currentColor" x1="0.0500" y1="0" x2="24.3131" y2="0"/>
</g>
<g transform="translate(32.7089, 5.1002)">
<rect x="0.0000" y="-1.0000" width="0.1900" height="2.0000" ry="0.0000" fill="currentColor"/>
</g>
<g transform="translate(21.7730, 5.1002)">
<rect x="0.0000" y="-1.0000" width="0.1900" height="2.0000" ry="0.0000" fill="currentColor"/>
</g>
<g transform="translate(27.1059, 1.2466)">
<text font-family="serif" font-style="italic" font-size="1.7459" text-anchor="start" fill="currentColor">
<tspan>7:8</tspan>
</text>
</g>
<g transform="translate(14.3014, 5.1002)">
<path transform="scale(0.0040, -0.0040)" d="M0 -46c0 91 116 182 217 182c63 0 109 -35 109 -90c0 -87 -110 -182 -220 -182c-67 0 -106 39 -106 90z" fill="currentColor"/>
</g>
<g transform="translate(10.2528, 5.1002)">
<path transform="scale(0.0040, -0.0040)" d="M46 500c1 0 70 -13 137 -13c66 0 138 13 139 13c9 0 15 -5 15 -11c0 -3 -75 -98 -260 -98c-9 0 -16 -8 -16 -17v-96c28 28 64 43 103 43c115 0 185 -51 185 -161c0 -94 -87 -160 -186 -160c-82 0 -163 39 -163 113c0 36 30 66 66 66s65 -30 65 -66c0 -25 -40 -28 -40 -53
c0 -30 37 -37 72 -37c57 0 70 71 70 137c0 63 -15 132 -69 132c-92 0 -101 -51 -118 -51c-8 0 -15 6 -15 15v228c0 9 7 16 15 16z" fill="currentColor"/>
</g>
<g transform="translate(9.5358, 7.1002)">
<g>
<path transform="scale(0.0040, -0.0040)" d="M175 487c21 0 40 14 46 14c7 0 12 -7 12 -17v-367c0 -48 28 -94 73 -94c8 0 12 -5 12 -11s-4 -12 -12 -12c-44 0 -87 13 -131 13s-87 -13 -131 -13c-8 0 -12 6 -12 12s4 11 12 11c45 0 73 46 73 94v245c0 12 -9 19 -17 19c-4 0 -8 -3 -10 -7l-64 -136c-3 -6 -7 -9 -12 -9
c-8 0 -16 6 -16 14c0 2 1 5 2 7l117 250c1 2 3 3 5 3c10 0 31 -16 53 -16z" fill="currentColor"/>

<path transform="translate(1.1609, 0.0000) scale(0.0040, -0.0040)" d="M196 117h117c0 -48 27 -94 72 -94c8 0 12 -5 12 -11s-4 -12 -12 -12c-44 0 -87 13 -131 13s-87 -13 -131 -13c-8 0 -12 6 -12 12s4 11 12 11c45 0 73 46 73 94zM225 487c36 0 69 14 76 14c8 0 14 -6 14 -12c0 -2 -1 -3 -2 -5l-284 -330h167v131c0 34 34 27 68 72
c22 30 23 56 36 56c6 0 13 -5 13 -14v-245h72c10 0 15 -7 15 -14s-5 -15 -15 -15h-72v-8h-117v8h-167c-23 0 -31 14 -31 23c0 12 140 143 140 336c0 9 6 16 13 16c5 0 39 -13 74 -13z" fill="currentColor"/>
</g>
</g>
<g transform="translate(15.5406, 5.1002)">
<rect x="-0.0650" y="-3.3333" width="0.1300" height="3.1471" ry="0.0400" fill="currentColor"/>
</g>
<g transform="translate(19.2056, 5.1002)">
<path transform="scale(0.0040, -0.0040)" d="M0 -46c0 91 116 182 217 182c63 0 109 -35 109 -90c0 -87 -110 -182 -220 -182c-67 0 -106 39 -106 90z" fill="currentColor"/>
</g>
<g transform="translate(20.4448, 5.1002)">
<rect x="-0.0650" y="-3.3750" width="0.1300" height="3.1888" ry="0.0400" fill="currentColor"/>
</g>
<g transform="translate(20.5098, 1.7652)">
<path transform="scale(0.0040, -0.0040)" d="M123 -854c0 10 42 76 42 172c0 97 -94 190 -165 257v-125h-16v550h16c0 -177 201 -293 201 -470c0 -33 -9 -65 -23 -95c18 -37 29 -75 29 -117c0 -63 -15 -125 -41 -183c-5 -8 -13 -12 -20 -12c-12 0 -23 9 -23 23zM151 -517c5 15 8 31 8 47c0 96 -91 190 -159 257
c0 -118 90 -206 151 -304z" fill="currentColor"/>
</g>
<g transform="translate(14.3014, 5.1002)">
<path stroke-width="0.0800" stroke-linejoin="round" stroke-linecap="round" stroke="currentColor" fill="currentColor" d="M0.8521 0.7500C1.6937 1.5545 4.5147 1.5545 5.3563 0.7500L5.3563 0.7500C4.5147 1.4345 1.6937 1.4345 0.8521 0.7500z"/>
</g>
<g transform="translate(16.8148, 1.1799)">
<text font-family="serif" font-style="italic" font-size="1.7459" text-anchor="start" fill="currentColor">
<tspan>7:8</tspan>
</text>
</g>
<g transform="translate(27.0446, 5.1002)">
<path transform="scale(0.0040, -0.0040)" d="M0 -46c0 91 116 182 217 182c63 0 109 -35 109 -90c0 -87 -110 -182 -220 -182c-67 0 -106 39 -106 90z" fill="currentColor"/>
</g>
<g transform="translate(22.7130, 5.1002)">
<path transform="scale(0.0040, -0.0040)" d="M263 265c0 -33 70 -23 70 -125c0 -92 -79 -140 -179 -140c-79 0 -154 42 -154 113c0 36 30 66 66 66s65 -30 65 -66c0 -25 -40 -28 -40 -53c0 -27 32 -37 63 -37c49 0 63 61 63 117v16c0 54 -2 94 -50 94h-80c-10 0 -14 8 -14 15s4 14 14 14h80c49 0 50 43 50 99v8
c0 54 -18 91 -67 91c-28 0 -57 -9 -57 -33c0 -22 35 -25 35 -47c0 -32 -25 -58 -57 -58s-58 26 -58 58c0 64 67 103 137 103c91 0 169 -33 169 -114c0 -122 -56 -80 -56 -121z" fill="currentColor"/>
</g>
<g transform="translate(22.7130, 7.1002)">
<path transform="scale(0.0040, -0.0040)" d="M360 486c0 -19 -164 -198 -164 -395c0 -41 8 -77 8 -78c0 -8 -6 -14 -13 -14c-6 0 -38 14 -74 14s-69 -14 -75 -14c-7 0 -14 6 -14 13c0 4 24 93 220 364c-21 -11 -41 -17 -61 -17c-60 0 -69 53 -115 53c-24 0 -43 -20 -43 -72v-75c0 -10 -7 -15 -14 -15s-15 5 -15 15
v220c0 10 8 15 15 15s14 -5 14 -15v-14c0 -8 9 -16 13 -16c3 0 27 45 87 45c70 0 74 -51 125 -51c56 0 76 51 90 51c8 0 16 -6 16 -14z" fill="currentColor"/>
</g>
<g transform="translate(28.7988, 4.6002)">
<path transform="scale(0.0040, -0.0040)" d="M0 0c0 31 25 56 56 56s56 -25 56 -56s-25 -56 -56 -56s-56 25 -56 56z" fill="currentColor"/>
</g>
<g transform="translate(28.2838, 5.1002)">
<rect x="-0.0650" y="-3.3333" width="0.1300" height="3.1471" ry="0.0400" fill="currentColor"/>
</g>
<g transform="translate(15.4756, 0.6002)">
<line stroke-linejoin="round" stroke-linecap="round" stroke-width="0.1600" stroke="currentColor" x1="5.2342" y1="-0.0000" x2="5.2342" y2="-0.0000"/>
</g>
<g transform="translate(15.4756, 0.6002)">
<line stroke-linejoin="round" stroke-linecap="round" stroke-width="0.1600" stroke="currentColor" x1="-0.2000" y1="-0.0000" x2="-0.2000" y2="0.7000"/>
</g>
<g transform="translate(15.4756, 0.6002)">
<line stroke-linejoin="round" stroke-linecap="round" stroke-width="0.1600" stroke="currentColor" x1="5.2342" y1="-0.0000" x2="4.2950" y2="-0.0000"/>
</g>
<g transform="translate(15.4756, 0.6002)">
<line stroke-linejoin="round" stroke-linecap="round" stroke-width="0.1600" stroke="currentColor" x1="-0.2000" y1="-0.0000" x2="0.9392" y2="-0.0000"/>
</g>
</svg>
