<svg xmlns="http://www.w3.org/2000/svg" xmlns:xlink="http://www.w3.org/1999/xlink" version="1.2" width="165.00mm" height="14.74mm" viewBox="8.5358 -0.0000 93.8941 8.3868">
<style type="text/css">
<![CDATA[
tspan { white-space: pre; }
]]>
</style>
<g transform="translate(8.5358, 4.9568)">
<line stroke-linejoin="round" stroke-linecap="round" stroke-width="0.1000" stroke="currentColor" x1="0.0500" y1="0" x2="93.8441" y2="0"/>
</g>
<g transform="translate(102.2399, 4.9568)">
<rect x="0.0000" y="-1.0000" width="0.1900" height="2.0000" ry="0.0000" fill="currentColor"/>
</g>
<g transform="translate(56.0766, 4.9568)">
<rect x="0.0000" y="-1.0000" width="0.1900" height="2.0000" ry="0.0000" fill="currentColor"/>
</g>
<g transform="translate(88.2120, 4.9568)">
<path stroke-width="0.0800" stroke-linejoin="round" stroke-linecap="round" stroke="currentColor" fill="currentColor" d="M1.2392 -3.7400C2.9720 -5.1721 8.9832 -5.1721 10.7160 -3.7400L10.7160 -3.7400C8.9832 -5.0521 2.9720 -5.0521 1.2392 -3.7400z"/>
</g>
<g transform="translate(89.3862, 1.9568)">
<polygon stroke-linejoin="round" stroke-linecap="round" stroke-width="0.0800" fill="currentColor" stroke="currentColor" points="9.5668 -0.2000 9.5668 0.2000 0.0400 0.2000 0.0400 -0.2000"/>
</g>
<g transform="translate(12.9922, 4.9568)">
<path transform="scale(0.0040, -0.0040)" d="M0 -46c0 91 116 182 217 182c63 0 109 -35 109 -90c0 -87 -110 -182 -220 -182c-67 0 -106 39 -106 90z" fill="currentColor"/>
</g>
<g transform="translate(9.6724, 4.9568)">
<path transform="scale(0.0040, -0.0040)" d="M263 265c0 -33 70 -23 70 -125c0 -92 -79 -140 -179 -140c-79 0 -154 42 -154 113c0 36 30 66 66 66s65 -30 65 -66c0 -25 -40 -28 -40 -53c0 -27 32 -37 63 -37c49 0 63 61 63 117v16c0 54 -2 94 -50 94h-80c-10 0 -14 8 -14 15s4 14 14 14h80c49 0 50 43 50 99v8
c0 54 -18 91 -67 91c-28 0 -57 -9 -57 -33c0 -22 35 -25 35 -47c0 -32 -25 -58 -57 -58s-58 26 -58 58c0 64 67 103 137 103c91 0 169 -33 169 -114c0 -122 -56 -80 -56 -121z" fill="currentColor"/>
</g>
<g transform="translate(9.5358, 6.9568)">
<path transform="scale(0.0040, -0.0040)" d="M196 117h117c0 -48 27 -94 72 -94c8 0 12 -5 12 -11s-4 -12 -12 -12c-44 0 -87 13 -131 13s-87 -13 -131 -13c-8 0 -12 6 -12 12s4 11 12 11c45 0 73 46 73 94zM225 487c36 0 69 14 76 14c8 0 14 -6 14 -12c0 -2 -1 -3 -2 -5l-284 -330h167v131c0 34 34 27 68 72
c22 30 23 56 36 56c6 0 13 -5 13 -14v-245h72c10 0 15 -7 15 -14s-5 -15 -15 -15h-72v-8h-117v8h-167c-23 0 -31 14 -31 23c0 12 140 143 140 336c0 9 6 16 13 16c5 0 39 -13 74 -13z" fill="currentColor"/>
</g>
<g transform="translate(13.0572, 4.9568)">
<rect x="-0.0650" y="0.1862" width="0.1300" height="3.1471" ry="0.0400" fill="currentColor"/>
</g>
<g transform="translate(14.2314, 4.9568)">
<rect x="-0.0650" y="-3.0000" width="0.1300" height="2.8138" ry="0.0400" fill="currentColor"/>
</g>
<g transform="translate(13.7314, 2.9944)">
<line stroke-linejoin="round" stroke-linecap="round" stroke-width="0.1300" stroke="currentColor" x1="0" y1="0" x2="1.9000" y2="-1.7000"/>
</g>
<g transform="translate(15.2738, 4.9568)">
<path transform="scale(0.0028, -0.0028)" d="M0 -40c0 92 109 179 208 179c67 0 117 -40 117 -99c0 -88 -103 -179 -211 -179c-71 0 -114 43 -114 99z" fill="currentColor"/>
</g>
<g transform="translate(16.1267, 4.9568)">
<rect x="-0.0650" y="-3.0000" width="0.1300" height="2.8856" ry="0.0400" fill="currentColor"/>
</g>
<g transform="translate(69.7952, 4.9568)">
<path stroke-width="0.0800" stroke-linejoin="round" stroke-linecap="round" stroke="currentColor" fill="currentColor" d="M0.8521 0.7500C2.2430 1.7246 13.6202 1.7246 15.0111 0.7500L15.0111 0.7500C13.6202 1.6046 2.2430 1.6046 0.8521 0.7500z"/>
</g>
<g transform="translate(17.1691, 4.9568)">
<path transform="scale(0.0028, -0.0028)" d="M0 -40c0 92 109 179 208 179c67 0 117 -40 117 -99c0 -88 -103 -179 -211 -179c-71 0 -114 43 -114 99z" fill="currentColor"/>
</g>
<g transform="translate(18.0221, 4.9568)">
<rect x="-0.0650" y="-3.0000" width="0.1300" height="2.8856" ry="0.0400" fill="currentColor"/>
</g>
<g transform="translate(69.7952, 4.9568)">
<path stroke-width="0.0800" stroke-linejoin="round" stroke-linecap="round" stroke="currentColor" fill="currentColor" d="M1.2392 -3.7400C1.7695 -4.2536 2.6042 -4.2536 3.1346 -3.7400L3.1346 -3.7400C2.6042 -4.1336 1.7695 -4.1336 1.2392 -3.7400z"/>
</g>
<g transform="translate(19.0645, 4.9568)">
<path transform="scale(0.0028, -0.0028)" d="M0 -40c0 92 109 179 208 179c67 0 117 -40 117 -99c0 -88 -103 -179 -211 -179c-71 0 -114 43 -114 99z" fill="currentColor"/>
</g>
<g transform="translate(19.9174, 4.9568)">
<rect x="-0.0650" y="-3.0000" width="0.1300" height="2.8856" ry="0.0400" fill="currentColor"/>
</g>
<g transform="translate(70.9694, 1.9568)">
<polygon stroke-linejoin="round" stroke-linecap="round" stroke-width="0.0800" fill="currentColor" stroke="currentColor" points="1.9854 -0.2000 1.9854 0.2000 0.0400 0.2000 0.0400 -0.2000"/>
</g>
<g transform="translate(20.9599, 4.9568)">
<path transform="scale(0.0028, -0.0028)" d="M0 -40c0 92 109 179 208 179c67 0 117 -40 117 -99c0 -88 -103 -179 -211 -179c-71 0 -114 43 -114 99z" fill="currentColor"/>
</g>
<g transform="translate(21.8128, 4.9568)">
<rect x="-0.0650" y="-3.0000" width="0.1300" height="2.8856" ry="0.0400" fill="currentColor"/>
</g>
<g transform="translate(22.8552, 4.9568)">
<path transform="scale(0.0028, -0.0028)" d="M0 -40c0 92 109 179 208 179c67 0 117 -40 117 -99c0 -88 -103 -179 -211 -179c-71 0 -114 43 -114 99z" fill="currentColor"/>
</g>
<g transform="translate(23.7082, 4.9568)">
<rect x="-0.0650" y="-3.0000" width="0.1300" height="2.8856" ry="0.0400" fill="currentColor"/>
</g>
<g transform="translate(45.6269, 7.3368)">
<polygon stroke-linejoin="round" stroke-linecap="round" stroke-width="0.0800" fill="currentColor" stroke="currentColor" points="1.1250 -0.2000 1.1250 0.2000 0.0400 0.2000 0.0400 -0.2000"/>
</g>
<g transform="translate(45.6269, 8.1468)">
<polygon stroke-linejoin="round" stroke-linecap="round" stroke-width="0.0800" fill="currentColor" stroke="currentColor" points="3.1607 -0.2000 3.1607 0.2000 0.0400 0.2000 0.0400 -0.2000"/>
</g>
<g transform="translate(27.2101, 4.9568)">
<path transform="scale(0.0040, -0.0040)" d="M0 -46c0 91 116 182 217 182c63 0 109 -35 109 -90c0 -87 -110 -182 -220 -182c-67 0 -106 39 -106 90z" fill="currentColor"/>
</g>
<g transform="translate(27.2751, 4.9568)">
<rect x="-0.0650" y="0.1862" width="0.1300" height="3.1888" ry="0.0400" fill="currentColor"/>
</g>
<g transform="translate(27.3401, 8.2918)">
<path transform="scale(0.0040, -0.0040)" d="M0 205c91 51 211 131 211 233c0 24 -5 48 -14 70c-79 -89 -197 -160 -197 -282v-21zM234 752c32 0 33 -83 33 -89c0 -44 -16 -82 -39 -116c16 -35 25 -71 25 -109c0 -181 -253 -257 -253 -438h-16v555h16v-125c97 49 224 128 224 233c0 37 -13 58 -13 66
c0 14 11 23 23 23z" fill="currentColor"/>
</g>
<g transform="translate(48.6977, 4.9568)">
<path stroke-width="0.0800" stroke-linejoin="round" stroke-linecap="round" stroke="currentColor" fill="currentColor" d="M0.8521 0.7500C1.9299 1.6458 7.0199 1.6458 8.0977 0.7500L8.0977 0.7500C7.0199 1.5258 1.9299 1.5258 0.8521 0.7500z"/>
</g>
<g transform="translate(30.2808, 4.9568)">
<path transform="scale(0.0040, -0.0040)" d="M0 -46c0 91 116 182 217 182c63 0 109 -35 109 -90c0 -87 -110 -182 -220 -182c-67 0 -106 39 -106 90z" fill="currentColor"/>
</g>
<g transform="translate(30.3458, 4.9568)">
<rect x="-0.0650" y="0.1862" width="0.1300" height="3.1471" ry="0.0400" fill="currentColor"/>
</g>
<g transform="translate(31.5200, 4.9568)">
<rect x="-0.0650" y="-3.0000" width="0.1300" height="2.8138" ry="0.0400" fill="currentColor"/>
</g>
<g transform="translate(31.0200, 2.9944)">
<line stroke-linejoin="round" stroke-linecap="round" stroke-width="0.1300" stroke="currentColor" x1="0" y1="0" x2="1.9000" y2="-1.7000"/>
</g>
<g transform="translate(48.6977, 4.9568)">
<path stroke-width="0.0800" stroke-linejoin="round" stroke-linecap="round" stroke="currentColor" fill="currentColor" d="M1.2392 -3.7400C3.2509 -5.3090 11.7735 -5.3090 13.7852 -3.7400L13.7852 -3.7400C11.7735 -5.1890 3.2509 -5.1890 1.2392 -3.7400z"/>
</g>
<g transform="translate(32.5624, 4.9568)">
<path transform="scale(0.0028, -0.0028)" d="M0 -40c0 92 109 179 208 179c67 0 117 -40 117 -99c0 -88 -103 -179 -211 -179c-71 0 -114 43 -114 99z" fill="currentColor"/>
</g>
<g transform="translate(33.4153, 4.9568)">
<rect x="-0.0650" y="-3.0000" width="0.1300" height="2.8856" ry="0.0400" fill="currentColor"/>
</g>
<g transform="translate(49.8719, 1.9568)">
<polygon stroke-linejoin="round" stroke-linecap="round" stroke-width="0.0800" fill="currentColor" stroke="currentColor" points="12.6360 -0.2000 12.6360 0.2000 0.0400 0.2000 0.0400 -0.2000"/>
</g>
<g transform="translate(45.6269, 4.9568)">
<path transform="scale(0.0040, -0.0040)" d="M0 -46c0 91 116 182 217 182c63 0 109 -35 109 -90c0 -87 -110 -182 -220 -182c-67 0 -106 39 -106 90z" fill="currentColor"/>
</g>
<g transform="translate(45.6919, 4.9568)">
<rect x="-0.0650" y="0.1862" width="0.1300" height="3.0038" ry="0.0400" fill="currentColor"/>
</g>
<g transform="translate(48.6977, 4.9568)">
<path transform="scale(0.0040, -0.0040)" d="M0 -46c0 91 116 182 217 182c63 0 109 -35 109 -90c0 -87 -110 -182 -220 -182c-67 0 -106 39 -106 90z" fill="currentColor"/>
</g>
<g transform="translate(48.7627, 4.9568)">
<rect x="-0.0650" y="0.1862" width="0.1300" height="3.0038" ry="0.0400" fill="currentColor"/>
</g>
<g transform="translate(49.9369, 4.9568)">
<rect x="-0.0650" y="-3.0000" width="0.1300" height="2.8138" ry="0.0400" fill="currentColor"/>
</g>
<g transform="translate(49.4369, 2.9944)">
<line stroke-linejoin="round" stroke-linecap="round" stroke-width="0.1300" stroke="currentColor" x1="0" y1="0" x2="1.9000" y2="-1.7000"/>
</g>
<g transform="translate(30.2808, 4.9568)">
<path stroke-width="0.0800" stroke-linejoin="round" stroke-linecap="round" stroke="currentColor" fill="currentColor" d="M0.8521 0.7500C2.2430 1.7246 13.6202 1.7246 15.0111 0.7500L15.0111 0.7500C13.6202 1.6046 2.2430 1.6046 0.8521 0.7500z"/>
</g>
<g transform="translate(50.9793, 4.9568)">
<path transform="scale(0.0028, -0.0028)" d="M0 -40c0 92 109 179 208 179c67 0 117 -40 117 -99c0 -88 -103 -179 -211 -179c-71 0 -114 43 -114 99z" fill="currentColor"/>
</g>
<g transform="translate(51.8322, 4.9568)">
<rect x="-0.0650" y="-3.0000" width="0.1300" height="2.8856" ry="0.0400" fill="currentColor"/>
</g>
<g transform="translate(30.2808, 4.9568)">
<path stroke-width="0.0800" stroke-linejoin="round" stroke-linecap="round" stroke="currentColor" fill="currentColor" d="M1.2392 -3.7400C1.7695 -4.2536 2.6042 -4.2536 3.1346 -3.7400L3.1346 -3.7400C2.6042 -4.1336 1.7695 -4.1336 1.2392 -3.7400z"/>
</g>
<g transform="translate(52.8746, 4.9568)">
<path transform="scale(0.0028, -0.0028)" d="M0 -40c0 92 109 179 208 179c67 0 117 -40 117 -99c0 -88 -103 -179 -211 -179c-71 0 -114 43 -114 99z" fill="currentColor"/>
</g>
<g transform="translate(53.7276, 4.9568)">
<rect x="-0.0650" y="-3.0000" width="0.1300" height="2.8856" ry="0.0400" fill="currentColor"/>
</g>
<g transform="translate(31.4550, 1.9568)">
<polygon stroke-linejoin="round" stroke-linecap="round" stroke-width="0.0800" fill="currentColor" stroke="currentColor" points="1.9854 -0.2000 1.9854 0.2000 0.0400 0.2000 0.0400 -0.2000"/>
</g>
<g transform="translate(54.7700, 4.9568)">
<path transform="scale(0.0028, -0.0028)" d="M0 -40c0 92 109 179 208 179c67 0 117 -40 117 -99c0 -88 -103 -179 -211 -179c-71 0 -114 43 -114 99z" fill="currentColor"/>
</g>
<g transform="translate(55.6229, 4.9568)">
<rect x="-0.0650" y="-3.0000" width="0.1300" height="2.8856" ry="0.0400" fill="currentColor"/>
</g>
<g transform="translate(12.9922, 4.9568)">
<path stroke-width="0.0800" stroke-linejoin="round" stroke-linecap="round" stroke="currentColor" fill="currentColor" d="M0.8521 0.7500C2.2073 1.7173 12.5277 1.7173 13.8829 0.7500L13.8829 0.7500C12.5277 1.5973 2.2073 1.5973 0.8521 0.7500z"/>
</g>
<g transform="translate(57.1303, 4.9568)">
<path transform="scale(0.0040, -0.0040)" d="M0 -46c0 91 116 182 217 182c63 0 109 -35 109 -90c0 -87 -110 -182 -220 -182c-67 0 -106 39 -106 90z" fill="currentColor"/>
</g>
<g transform="translate(58.8845, 5.4568)">
<path transform="scale(0.0040, -0.0040)" d="M0 0c0 31 25 56 56 56s56 -25 56 -56s-25 -56 -56 -56s-56 25 -56 56z" fill="currentColor"/>
</g>
<g transform="translate(57.1953, 4.9568)">
<rect x="-0.0650" y="0.1862" width="0.1300" height="3.1888" ry="0.0400" fill="currentColor"/>
</g>
<g transform="translate(57.2603, 8.2918)">
<path transform="scale(0.0040, -0.0040)" d="M0 0h-16v375h16v-375zM224 509c0 94 -40 158 -40 168c0 14 11 22 23 22c7 0 15 -3 20 -11c25 -56 40 -117 40 -179c0 -203 -267 -306 -267 -509v250c97 59 224 148 224 259z" fill="currentColor"/>
</g>
<g transform="translate(12.9922, 4.9568)">
<path stroke-width="0.0800" stroke-linejoin="round" stroke-linecap="round" stroke="currentColor" fill="currentColor" d="M1.2392 -3.7400C2.9720 -5.1721 8.9832 -5.1721 10.7160 -3.7400L10.7160 -3.7400C8.9832 -5.0521 2.9720 -5.0521 1.2392 -3.7400z"/>
</g>
<g transform="translate(59.7345, 4.9568)">
<path transform="scale(0.0028, -0.0028)" d="M0 -40c0 92 109 179 208 179c67 0 117 -40 117 -99c0 -88 -103 -179 -211 -179c-71 0 -114 43 -114 99z" fill="currentColor"/>
</g>
<g transform="translate(60.5875, 4.9568)">
<rect x="-0.0650" y="-3.0000" width="0.1300" height="2.8856" ry="0.0400" fill="currentColor"/>
</g>
<g transform="translate(14.1664, 1.9568)">
<polygon stroke-linejoin="round" stroke-linecap="round" stroke-width="0.0800" fill="currentColor" stroke="currentColor" points="9.5668 -0.2000 9.5668 0.2000 0.0400 0.2000 0.0400 -0.2000"/>
</g>
<g transform="translate(61.6299, 4.9568)">
<path transform="scale(0.0028, -0.0028)" d="M0 -40c0 92 109 179 208 179c67 0 117 -40 117 -99c0 -88 -103 -179 -211 -179c-71 0 -114 43 -114 99z" fill="currentColor"/>
</g>
<g transform="translate(62.4828, 4.9568)">
<rect x="-0.0650" y="-3.0000" width="0.1300" height="2.8856" ry="0.0400" fill="currentColor"/>
</g>
<g transform="translate(69.7952, 4.9568)">
<path transform="scale(0.0040, -0.0040)" d="M0 -46c0 91 116 182 217 182c63 0 109 -35 109 -90c0 -87 -110 -182 -220 -182c-67 0 -106 39 -106 90z" fill="currentColor"/>
</g>
<g transform="translate(69.8602, 4.9568)">
<rect x="-0.0650" y="0.1862" width="0.1300" height="3.1471" ry="0.0400" fill="currentColor"/>
</g>
<g transform="translate(71.0344, 4.9568)">
<rect x="-0.0650" y="-3.0000" width="0.1300" height="2.8138" ry="0.0400" fill="currentColor"/>
</g>
<g transform="translate(70.5344, 2.9944)">
<line stroke-linejoin="round" stroke-linecap="round" stroke-width="0.1300" stroke="currentColor" x1="0" y1="0" x2="1.9000" y2="-1.7000"/>
</g>
<g transform="translate(72.0768, 4.9568)">
<path transform="scale(0.0028, -0.0028)" d="M0 -40c0 92 109 179 208 179c67 0 117 -40 117 -99c0 -88 -103 -179 -211 -179c-71 0 -114 43 -114 99z" fill="currentColor"/>
</g>
<g transform="translate(72.9297, 4.9568)">
<rect x="-0.0650" y="-3.0000" width="0.1300" height="2.8856" ry="0.0400" fill="currentColor"/>
</g>
<g transform="translate(85.1413, 4.9568)">
<path transform="scale(0.0040, -0.0040)" d="M0 -46c0 91 116 182 217 182c63 0 109 -35 109 -90c0 -87 -110 -182 -220 -182c-67 0 -106 39 -106 90z" fill="currentColor"/>
</g>
<g transform="translate(85.2063, 4.9568)">
<rect x="-0.0650" y="0.1862" width="0.1300" height="3.1888" ry="0.0400" fill="currentColor"/>
</g>
<g transform="translate(85.2713, 8.2918)">
<path transform="scale(0.0040, -0.0040)" d="M0 205c91 51 211 131 211 233c0 24 -5 48 -14 70c-79 -89 -197 -160 -197 -282v-21zM234 752c32 0 33 -83 33 -89c0 -44 -16 -82 -39 -116c16 -35 25 -71 25 -109c0 -181 -253 -257 -253 -438h-16v555h16v-125c97 49 224 128 224 233c0 37 -13 58 -13 66
c0 14 11 23 23 23z" fill="currentColor"/>
</g>
<g transform="translate(88.2120, 4.9568)">
<path transform="scale(0.0040, -0.0040)" d="M0 -46c0 91 116 182 217 182c63 0 109 -35 109 -90c0 -87 -110 -182 -220 -182c-67 0 -106 39 -106 90z" fill="currentColor"/>
</g>
<g transform="translate(88.2770, 4.9568)">
<rect x="-0.0650" y="0.1862" width="0.1300" height="3.1471" ry="0.0400" fill="currentColor"/>
</g>
<g transform="translate(89.4512, 4.9568)">
<rect x="-0.0650" y="-3.0000" width="0.1300" height="2.8138" ry="0.0400" fill="currentColor"/>
</g>
<g transform="translate(88.9512, 2.9944)">
<line stroke-linejoin="round" stroke-linecap="round" stroke-width="0.1300" stroke="currentColor" x1="0" y1="0" x2="1.9000" y2="-1.7000"/>
</g>
<g transform="translate(90.4937, 4.9568)">
<path transform="scale(0.0028, -0.0028)" d="M0 -40c0 92 109 179 208 179c67 0 117 -40 117 -99c0 -88 -103 -179 -211 -179c-71 0 -114 43 -114 99z" fill="currentColor"/>
</g>
<g transform="translate(91.3466, 4.9568)">
<rect x="-0.0650" y="-3.0000" width="0.1300" height="2.8856" ry="0.0400" fill="currentColor"/>
</g>
<g transform="translate(92.3890, 4.9568)">
<path transform="scale(0.0028, -0.0028)" d="M0 -40c0 92 109 179 208 179c67 0 117 -40 117 -99c0 -88 -103 -179 -211 -179c-71 0 -114 43 -114 99z" fill="currentColor"/>
</g>
<g transform="translate(93.2420, 4.9568)">
<rect x="-0.0650" y="-3.0000" width="0.1300" height="2.8856" ry="0.0400" fill="currentColor"/>
</g>
<g transform="translate(94.2844, 4.9568)">
<path transform="scale(0.0028, -0.0028)" d="M0 -40c0 92 109 179 208 179c67 0 117 -40 117 -99c0 -88 -103 -179 -211 -179c-71 0 -114 43 -114 99z" fill="currentColor"/>
</g>
<g transform="translate(95.1373, 4.9568)">
<rect x="-0.0650" y="-3.0000" width="0.1300" height="2.8856" ry="0.0400" fill="currentColor"/>
</g>
<g transform="translate(96.1797, 4.9568)">
<path transform="scale(0.0028, -0.0028)" d="M0 -40c0 92 109 179 208 179c67 0 117 -40 117 -99c0 -88 -103 -179 -211 -179c-71 0 -114 43 -114 99z" fill="currentColor"/>
</g>
<g transform="translate(97.0327, 4.9568)">
<rect x="-0.0650" y="-3.0000" width="0.1300" height="2.8856" ry="0.0400" fill="currentColor"/>
</g>
<g transform="translate(98.0751, 4.9568)">
<path transform="scale(0.0028, -0.0028)" d="M0 -40c0 92 109 179 208 179c67 0 117 -40 117 -99c0 -88 -103 -179 -211 -179c-71 0 -114 43 -114 99z" fill="currentColor"/>
</g>
<g transform="translate(98.9280, 4.9568)">
<rect x="-0.0650" y="-3.0000" width="0.1300" height="2.8856" ry="0.0400" fill="currentColor"/>
</g>
</svg>
